<svg version="1.1" id="Layer_1" xmlns="http://www.w3.org/2000/svg" x="0" y="0" viewBox="0 0 150 150" xml:space="preserve"><style>.st0{fill:#fff}</style><path d="M110.1 31.2c-.2-16.6-16.2-27.7-33-27.7S44.8 14.6 44.5 31.2H24.4v118.1h105.8V31.2h-20.1z"/><path class="st0" d="M107.5 28.5C107.3 12 91.3.8 74.5.8S42.1 12 41.9 28.5H21.8v118.1h105.8V28.5h-20.1z"/><path d="M103.1 32.4c-.2-15.3-12.7-27.9-28.2-27.9S46.9 17 46.7 32.4H26v110h97.5v-110h-20.4zM74.8 14.3c10.2 0 18.4 8.1 18.5 18.2H56.2c.2-10.1 8.5-18.2 18.6-18.2z" fill="#fcc31e"/><path d="M38 113.7c.5.3.9.8 1.1 1.3v-1.7h2.8v9.2c0 .9-.2 1.6-.5 2.3-.3.7-.8 1.2-1.5 1.6s-1.5.6-2.5.6c-1.4 0-2.5-.3-3.3-1s-1.3-1.5-1.5-2.7h2.8c.1.4.3.7.6.9.3.2.7.3 1.2.3.6 0 1.1-.2 1.4-.5s.5-.9.5-1.6v-1.6c-.2.6-.6 1-1.1 1.3s-1.1.5-1.8.5c-.8 0-1.4-.2-2-.6s-1.1-.9-1.4-1.6c-.3-.7-.5-1.6-.5-2.5 0-1 .2-1.8.5-2.5s.8-1.3 1.4-1.6c.6-.4 1.3-.6 2-.6s1.3.1 1.8.5zm-2.4 2.6c-.4.4-.6.9-.6 1.6s.2 1.3.6 1.6c.4.4.9.6 1.5.6s1.1-.2 1.5-.6.6-1 .6-1.6c0-.7-.2-1.2-.6-1.6-.4-.4-.9-.6-1.5-.6s-1.1.2-1.5.6zM50.5 113.8c.7.4 1.3.9 1.7 1.6s.6 1.6.6 2.5c0 1-.2 1.8-.6 2.5-.4.7-1 1.3-1.7 1.6-.7.4-1.5.6-2.4.6s-1.7-.2-2.5-.6c-.7-.4-1.3-.9-1.7-1.6s-.6-1.6-.6-2.5c0-1 .2-1.8.6-2.5.4-.7 1-1.3 1.7-1.6.7-.4 1.5-.6 2.5-.6.8 0 1.7.2 2.4.6zm-3.8 2.4c-.4.4-.6 1-.6 1.7s.2 1.3.6 1.7.8.6 1.4.6c.5 0 1-.2 1.4-.6s.5-.9.5-1.7c0-.7-.2-1.3-.5-1.7-.4-.4-.8-.6-1.4-.6s-1.1.2-1.4.6zM60.8 113.8c.7.4 1.3.9 1.7 1.6s.6 1.6.6 2.5c0 1-.2 1.8-.6 2.5-.4.7-1 1.3-1.7 1.6-.7.4-1.5.6-2.4.6s-1.7-.2-2.5-.6c-.7-.4-1.3-.9-1.7-1.6s-.6-1.6-.6-2.5c0-1 .2-1.8.6-2.5.4-.7 1-1.3 1.7-1.6.7-.4 1.5-.6 2.5-.6.9 0 1.7.2 2.4.6zm-3.8 2.4c-.4.4-.6 1-.6 1.7s.2 1.3.6 1.7c.4.4.8.6 1.4.6.5 0 1-.2 1.4-.6s.5-.9.5-1.7c0-.7-.2-1.3-.5-1.7-.4-.4-.8-.6-1.4-.6-.5 0-1 .2-1.4.6zM69.8 113.7c.5.3.9.8 1.1 1.3v-4.7h2.8v12.2h-2.8v-1.7c-.2.6-.6 1-1.1 1.3s-1.1.5-1.8.5c-.8 0-1.4-.2-2-.6s-1.1-.9-1.4-1.6-.5-1.6-.5-2.5c0-1 .2-1.8.5-2.5s.8-1.3 1.4-1.6c.6-.4 1.3-.6 2-.6s1.3.1 1.8.5zm-2.4 2.6c-.4.4-.6.9-.6 1.6s.2 1.3.6 1.6c.4.4.9.6 1.5.6s1.1-.2 1.5-.6.6-1 .6-1.6c0-.7-.2-1.2-.6-1.6s-.9-.6-1.5-.6-1.1.2-1.5.6zM77.6 113.3l2.2 5.6 2.1-5.6H85l-5.7 13.6h-3.1l2.2-4.7-3.9-8.9h3.1zM93.6 113.8c.6.4 1.1.9 1.4 1.6s.5 1.5.5 2.5-.2 1.8-.5 2.5-.8 1.3-1.4 1.6c-.6.4-1.3.6-2 .6s-1.3-.2-1.8-.5-.9-.8-1.1-1.3v1.7h-2.8v-12.2h2.8v4.7c.2-.5.6-1 1.1-1.3s1.1-.5 1.8-.5 1.4.2 2 .6zm-4.4 2.5c-.4.4-.6.9-.6 1.6s.2 1.2.6 1.6.9.6 1.5.6 1.1-.2 1.5-.6.6-.9.6-1.6-.2-1.3-.6-1.6-.9-.6-1.5-.6c-.7 0-1.2.2-1.5.6zM102.1 113.7c.5.3.9.8 1.1 1.3v-1.7h2.8v9.2h-2.8v-1.7c-.2.6-.6 1-1.1 1.3s-1.1.5-1.8.5c-.8 0-1.4-.2-2-.6s-1.1-.9-1.4-1.6-.5-1.6-.5-2.5c0-1 .2-1.8.5-2.5s.8-1.3 1.4-1.6c.6-.4 1.3-.6 2-.6s1.3.1 1.8.5zm-2.4 2.6c-.4.4-.6.9-.6 1.6s.2 1.3.6 1.6.9.6 1.5.6 1.1-.2 1.5-.6.6-1 .6-1.6c0-.7-.2-1.2-.6-1.6s-.9-.6-1.5-.6-1.1.2-1.5.6zM113.1 113.7c.5.3.9.8 1.1 1.3v-1.7h2.8v9.2c0 .9-.2 1.6-.5 2.3s-.8 1.2-1.5 1.6-1.5.6-2.5.6c-1.4 0-2.5-.3-3.3-1s-1.3-1.5-1.5-2.7h2.8c.1.4.3.7.6.9.3.2.7.3 1.2.3.6 0 1.1-.2 1.4-.5.4-.3.5-.9.5-1.6v-1.6c-.2.6-.6 1-1.1 1.3s-1.1.5-1.8.5c-.8 0-1.4-.2-2-.6s-1.1-.9-1.4-1.6-.5-1.6-.5-2.5c0-1 .2-1.8.5-2.5s.8-1.3 1.4-1.6c.6-.4 1.3-.6 2-.6s1.3.1 1.8.5zm-2.3 2.6c-.4.4-.6.9-.6 1.6s.2 1.3.6 1.6c.4.4.9.6 1.5.6s1.1-.2 1.5-.6.6-1 .6-1.6c0-.7-.2-1.2-.6-1.6s-.9-.6-1.5-.6c-.7 0-1.2.2-1.5.6z"/><g><path d="M50.5 83.9c-.6 1.4-1.5 2.7-2.7 3.7h17.5v6.8H39.4l-1.1-4.2c1.7-1.4 2.9-2.9 3.7-4.5s1.2-3.5 1.2-5.8v-.3h-5.8v-5.8h4.2c-.8-2.7-1.2-5-1.2-7.1 0-2.2.5-4.1 1.5-5.7 1-1.6 2.4-2.9 4.3-3.8 1.8-.9 3.9-1.3 6.3-1.3 3.8 0 6.9 1.1 9 3.2s3.4 4.9 3.7 8.3h-8c-.1-1.3-.6-2.4-1.3-3.2-.8-.8-1.8-1.2-3.1-1.2s-2.3.4-3 1.2c-.7.8-1.1 2-1.1 3.5 0 .8.1 1.6.3 2.4s.6 2 1.1 3.7H59v5.8h-7.6v.3c0 1.3-.3 2.6-.9 4zM66.5 66.5v-8.1H81v35.8h-9.1V66.5h-5.4zM110.2 65.2H94.1v7.2c.7-.8 1.7-1.4 3-1.9s2.6-.7 4.1-.7c2.4 0 4.4.5 6 1.6s2.8 2.5 3.6 4.3c.8 1.8 1.2 3.8 1.2 5.9 0 3.9-1.1 7-3.3 9.3-2.2 2.3-5.3 3.4-9.3 3.4-2.7 0-5-.5-7-1.4-2-1-3.5-2.3-4.6-4s-1.7-3.7-1.7-6h8.4c.2 1.1.6 2.1 1.4 2.8.8.7 1.8 1.1 3.1 1.1 1.5 0 2.7-.5 3.4-1.5.8-1 1.1-2.3 1.1-3.9s-.4-2.7-1.2-3.6c-.8-.8-1.9-1.3-3.4-1.3-1.1 0-2 .2-2.8.7-.7.5-1.2 1.1-1.5 1.9h-8.4V57.6h23.9v7.6h.1z"/></g><g><path d="M77.5 12.6l63.6-1.7-2.2 37.9-60.4-2.6z"/><path class="st0" d="M93.7 25.7h-3.5v3.6h-2.1v-3.6h-3.5v-2h3.5v-3.6h2.1v3.6h3.5v2zM102.4 30.4V16.3h-5.5v3H99v11.1zM107.5 19.6c-.5 1.1-.9 2.3-.9 3.7s.3 2.6.9 3.7 1.4 1.9 2.5 2.5 2.3.9 3.7.9c1.2 0 2.2-.2 3.1-.7.9-.4 1.7-1 2.2-1.7.6-.7 1-1.5 1.3-2.3v-3.3h-7v2.2h4.4l-.1.2c-.3.9-.7 1.6-1.4 2-.6.5-1.4.7-2.3.7-1.3 0-2.4-.4-3.1-1.1-.7-.8-1.1-1.9-1.1-3.3 0-1.3.3-2.3 1-3.1.7-.8 1.6-1.2 2.8-1.2.7 0 1.4.2 1.9.5s.9.7 1.1 1.2h3.4c-.3-1.4-1-2.5-2.1-3.3-1.1-.9-2.6-1.3-4.4-1.3-2.8 0-4.8 1.4-5.9 3.7zM132.3 17.3c-.8-.6-1.9-.9-3.3-.9h-6.4v14.1h6.5c1.5 0 2.6-.3 3.4-1 .8-.7 1.2-1.6 1.2-2.8 0-.8-.2-1.5-.7-2.1s-1.1-1-2-1.2l-.6-.1s1.4-.4 2.3-1.4c.4-.5.7-1.2.7-2.1 0-1.1-.4-1.9-1.1-2.5zm-6.5 1.5h2.4c1.7 0 2 .9 2 1.7s-.3 1.7-2 1.7h-2.4v-3.4zm4.7 7.3c0 .8-.4 1.7-2.1 1.7h-2.6v-3.5h2.6c.7 0 1.2.2 1.5.5.4.3.6.8.6 1.3z"/><g><path class="st0" d="M100 39.5h-5.7c0 .8.2 1.3.6 1.7s.9.6 1.5.6c.5 0 .9-.1 1.3-.4.4-.3.6-.6.7-1h1.6c-.1.5-.3 1-.6 1.4-.3.4-.7.7-1.2.9s-1.1.3-1.7.3c-.7 0-1.4-.2-1.9-.5-.6-.3-1-.7-1.3-1.3s-.5-1.3-.5-2c0-.8.2-1.4.5-2s.7-1 1.3-1.3c.6-.3 1.2-.5 1.9-.5s1.4.2 1.9.5 1.9 1.4 1.6 3.6zm-3.5-2.8c-.6 0-1.1.2-1.5.6-.4.4-.6.9-.7 1.6h4.2c0-.6-.4-2.2-2-2.2zM105.9 42.9l-1.8-2.6-1.6 2.6h-1.7l2.4-3.8-2.5-3.6h1.7l1.8 2.6 1.6-2.6h1.7l-2.4 3.7 2.5 3.7h-1.7zM112.4 41.5v1.3h-.9c-.8 0-1.4-.2-1.8-.6-.4-.4-.6-1-.6-1.9v-3.6H108v-1.3h1.1v-1.8h1.5v1.8h1.8v1.3h-1.8v3.7c0 .4.1.7.2.9.2.2.4.2.8.2h.8zM118.1 35.4V37h-.5c-.7 0-1.2.2-1.6.5s-.6.9-.6 1.6v3.8h-1.5v-7.4h1.5V37c.3-.6 1.1-1.6 2.7-1.6zM124 35.9c.5.3.8.8 1 1.3v-1.7h1.5v7.4H125v-1.7c-.2.5-.5 1-1 1.3s-1 .5-1.7.5c-.6 0-1.2-.2-1.7-.5s-.9-.7-1.2-1.3c-.3-.6-.4-1.3-.4-2 0-.8.1-1.4.4-2s.7-1 1.2-1.3 1.1-.5 1.7-.5 1.2.1 1.7.5zm-2.9 1.5c-.4.4-.6 1-.6 1.8s.2 1.4.6 1.8c.4.4 1 .7 1.6.7.4 0 .8-.1 1.2-.3.3-.2.6-.5.8-.9.2-.4.3-.8.3-1.3s-.1-.9-.3-1.3c-.2-.4-.5-.7-.8-.9s-.7-.3-1.2-.3c-.7 0-1.2.2-1.6.7z"/></g></g></svg>