<svg version="1.1" id="Layer_1" xmlns="http://www.w3.org/2000/svg" x="0" y="0" viewBox="0 0 150 60" xml:space="preserve"><style>.st0{fill:#73b62b}.st1{fill:#007349}.st2{fill:#ae0c20}.st3{fill:#eb608f}.st4{fill:#36adce}.st5{fill:#00528b}</style><path class="st0" d="M136 34.8s-11.3-4.9-23-4.7c-15.7.4-23.1-4.6-23.1-4.6L92.3.9s7.5 6.2 19.9 5.6c16.3-.9 26.3 5.2 26.3 5.2L136 34.8z"/><path class="st1" d="M102.1 22l.4-3.6.2-2.1.2-1.8c.2-1.5.7-2.7 1.6-3.5.8-.7 2-1.1 3.3-.9 2.1.2 3.2 1.3 4 2.7l-1.9 1.3c-.6-1-1.2-1.6-2.3-1.7-.6-.1-1.1.1-1.4.4-.5.4-.8 1-.9 1.9l-.2 1.8 4.8.5-.2 2.1-4.8-.5-.4 3.5 6.2.7-.3 2.2-8.6-.8.3-2.2zM114.9 11.7l6.3.7-.3 2.4-4.5-.5-.7 2.5c.6-.2 1.2-.3 1.8-.2 2.6.3 4.2 2.8 3.9 5.4-.3 2.6-2.5 4.8-5.4 4.5-2.5-.3-4.5-2.5-4.3-5.1l2.5.3c.2 1.6 1.2 2.2 2 2.3 1.6.2 2.6-1.1 2.7-2.3.1-1.1-.6-2.6-2.1-2.7-1.1-.1-1.6.4-2 .8l-2.2-.9 2.3-7.2z"/><path class="st0" d="M115.6 5.6l9.3-4.6c.7-.4 1.5-.4 2.3-.3l22.2 4.9-1.4 6.3c-.4 1.9-1.6 2.6-2.5 3.2-1.7 1-5.3 3.3-5.9 3.7-1 .6-2 1-3.9.6l-13-2.8c-1.1-.3-1.9-1.4-1.6-2.6.3-1.1 1.4-1.9 2.6-1.6l9.2 2-4-5.9-13.3-2.9"/><path class="st2" d="M150 5.9l-1.4 6.3c-.5 2.2-1.8 2.9-2.7 3.6-1.7 1.1-5.3 3.4-6 3.7-1 .6-2.3 1.1-4.4.7l-13-2.8c-1.5-.3-2.5-1.8-2.2-3.4s1.8-2.5 3.3-2.2l7.5 1.6-2.9-4.2-12.9-2.9-.2-1.3 9.3-4.6c.8-.4 1.8-.5 2.7-.3L149.3 5l.7.9zm-28.3 8.3c-.2.8.3 1.5 1.1 1.7l13 2.8c1.6.4 2.6-.1 3.4-.5.6-.4 4.2-2.6 5.9-3.7.9-.6 1.8-1.1 2.2-2.7l1.2-5.7L127 1.5c-.6-.2-1.3-.1-1.8.2l-7.5 3.7L129 7.9l.4.3 4 5.9-.7 1.1-9.2-2c-.8-.3-1.6.2-1.8 1zm7.1-5.7z"/><path class="st3" d="M145.5 15.3c.9-.6 2-1.2 2.5-3.2l1.4-6.3L127.2.9c-.8-.2-1.6-.1-2.3.3l-9.3 4.6 13.2 2.9 4 5.9-9.2-2c-1.1-.3-2.3.5-2.6 1.6-.3 1.1.5 2.3 1.6 2.6l13 2.8c1.8.4 2.9-.1 3.9-.6.7-.5 4.3-2.7 6-3.7"/><path class="st2" d="M150 5.9l-1.4 6.3c-.5 2.2-1.8 2.9-2.7 3.6l-.4-.6.4.6c-1.7 1-5.3 3.3-5.9 3.7-1 .6-2.3 1.1-4.4.7l-13-2.8c-1.5-.3-2.5-1.8-2.2-3.4s1.8-2.5 3.3-2.2l7.5 1.6-2.9-4.2-12.9-2.9-.2-1.3 9.3-4.6c.8-.4 1.8-.5 2.7-.3L149.4 5l.6.9zm-28.3 8.3c-.2.8.3 1.5 1.1 1.7l13 2.8c1.6.4 2.6-.1 3.4-.5.6-.4 4.2-2.6 5.9-3.7l.1-.1c.9-.5 1.8-1.1 2.1-2.6l1.2-5.7L127 1.5c-.6-.2-1.3-.1-1.8.2l-7.5 3.7L129 7.9l.4.3 4 5.9-.7 1.1-9.2-2c-.8-.3-1.6.2-1.8 1z"/><path d="M104.5 31.3h-6.7c-3-10.1-13.5-15.2-23.8-15.2-3.6 0-6.4.7-9.5 2-2.6-4-7.2-4.9-7.2-4.9V23L50 30h-1.9c-2 0-2.6.9-2.6 2.5v9.8c0 1.6 1 3.2 2.6 3.2h2s4.1 5 6.4 7.8c.6.7.9 1.4.9 2.6v3.9h10.3V56c0-1.7 1.4-1.6 1.4-1.6h10.5s1.3-.1 1.3 1.3v4.1h10.2v-5.4s5.5-4.2 7.1-12.6c1.9-1.3 6-5 6.3-10.5zm-44.6.7c-1.4 0-2.6-1.1-2.6-2.6s1.1-2.6 2.6-2.6 2.6 1.1 2.6 2.6-1.1 2.6-2.6 2.6zm24.5-8.4c-2.5-1.2-5.5-1.8-9-1.8-2.8 0-5.5.6-8.1 1.8L66.1 21c2.9-1.4 6-2.1 9.3-2.1 3.8 0 7.3.7 10.2 2.1l-1.2 2.6z"/><path class="st3" d="M77.7 46.7l-9.9-10 5.7-5.9 4 4.1 4-4.1 5.8 5.8-9.6 10.1z"/><path class="st4" d="M6.5 33.4c-.3-1.4-.5-2.6-.7-3.8-.5-3.4-1.2-6.1-2.3-8.5-.2-.5-.5-1-.8-1.5-.2-.4-.5-.8-.7-1.2-.4-.8-.4-1.7 0-2.4s1.2-1.1 2.2-1.1c1.8 0 3 1.1 3.6 2 1.8 2.2 2.5 5 2.9 6.8.1.6.3.9.5 1.1l.5.4-4.6 10.4-.6-2.2z"/><path class="st5" d="M4.3 15.6c1.3 0 2.3.7 3 1.7 1.5 1.8 2.3 4.1 2.7 6.4.2.7.4 1.2.8 1.5l-3.5 7.9c-.3-1.2-.6-2.4-.7-3.8-.4-3.1-1.1-5.9-2.3-8.7-.4-.9-1-1.8-1.5-2.7-.7-1.2.1-2.3 1.5-2.3m0-1.6c-1.2 0-2.3.6-2.8 1.5s-.6 2-.1 3.2c.2.4.5.8.7 1.2.3.5.6.9.8 1.4 1 2.4 1.7 5 2.2 8.3.2 1.2.4 2.5.8 3.9l1 4.3 1.8-4.1 3.5-7.9.5-1.1-.9-.7s-.2-.2-.3-.7c-.4-1.8-1.1-4.7-3-7.1C8 15.8 6.7 14 4.3 14z"/><g><path d="M18.1 5.4L5.6 9.8c-1.8.6-2.8 2.6-2.2 4.5l10 29.6.1.1 1 2.9c.6 1.8 2.6 2.8 4.4 2.2L37 42.8c1.8-.6 2.8-2.6 2.2-4.5l-9.1-26.7-12-6.2zM24 35.9l-13.4-6.7 3.8-8 5.6 2.7 2.7-5.6 7.9 3.9L24 35.9z" fill="#fcc41e"/></g><g><path class="st4" d="M12 47.3c-1.3 0-2.3-.6-2.8-1.7-.2-.7-.2-1.3 0-1.9.4-1 1.5-1.5 2-1.7l3.1-1.5h.1c.2-.1.5-.1.8-.1 1.1 0 2.4.5 2.8 1.6.7 2-.6 3.3-1.5 3.6l-3.1 1.6h-.1c-.4 0-.8.1-1.3.1z"/><path class="st5" d="M15.1 41.1c.7 0 1.8.3 2.1 1.1.5 1.6-.5 2.4-1.1 2.6L13 46.4c-.2.1-.6.2-1 .2-.8 0-1.6-.3-2-1.2-.7-1.7 1-2.4 1.5-2.6l3.1-1.5c.1-.2.3-.2.5-.2m0-1.6c-.4 0-.8.1-1.1.2l-.1.1-3 1.5c-.6.2-1.8.8-2.4 2.1-.2.5-.4 1.4.1 2.5.6 1.3 1.8 2.2 3.4 2.2.6 0 1.1-.1 1.5-.3h.1l.1-.1 3.1-1.5c1.4-.6 2.6-2.3 1.9-4.6v-.2c-.7-1.2-2.3-1.9-3.6-1.9z"/></g><g><path class="st4" d="M6.7 42.7c-1.1 0-2.2-.7-2.6-1.7-.3-.7-.3-1.4.1-2.1.2-.7.8-1.2 1.4-1.5l6.7-2.7c.3-.1.7-.2 1-.2 1.1 0 2.2.7 2.6 1.7.6 1.4-.2 3.1-1.5 3.6l-6.7 2.7c-.3.1-.7.2-1 .2z"/><path class="st5" d="M13.3 35.2c.8 0 1.5.5 1.8 1.2.4 1-.1 2.2-1.1 2.6l-6.7 2.7c-.3.2-.5.3-.7.3-.8 0-1.5-.5-1.8-1.2-.4-1 .1-2.2 1.1-2.6l6.7-2.7c.2-.2.5-.3.7-.3m0-1.5c-.5 0-.9.1-1.3.3l-6.7 2.7c-1.8.7-2.7 2.8-1.9 4.6.5 1.3 1.8 2.2 3.2 2.2.5 0 .9-.1 1.3-.3l6.7-2.7c.9-.4 1.5-1 1.9-1.8.4-.9.4-1.8.1-2.7-.6-1.4-1.9-2.3-3.3-2.3z"/></g><g><path class="st4" d="M3.5 37.2c-1.1 0-2.2-.7-2.6-1.7-.6-1.4.2-3.1 1.5-3.6l8-3.3c.3-.1.7-.2 1-.2 1.1 0 2.2.7 2.6 1.7.3.7.3 1.4-.1 2.1s-.8 1.2-1.5 1.4l-8 3.3c-.3.3-.6.3-.9.3z"/><path class="st5" d="M11.5 29.2c.8 0 1.5.5 1.8 1.2.4 1-.1 2.2-1.1 2.6l-8 3.3c-.3.1-.5.2-.7.2-.8 0-1.5-.5-1.8-1.2-.4-1 .1-2.2 1.1-2.6l8-3.3c.3-.1.5-.2.7-.2m0-1.5c-.5 0-.9.1-1.3.3l-8 3.3C.4 32-.5 34.1.3 35.9.8 37.1 2 38 3.5 38c.5 0 .9-.1 1.3-.3l8-3.3c1.8-.7 2.7-2.8 1.9-4.6-.5-1.2-1.8-2.1-3.2-2.1z"/></g><g><path class="st4" d="M5 29.9c-1.1 0-2.2-.7-2.6-1.7-.6-1.4.2-3.1 1.5-3.6l4.6-1.8c.3-.1.7-.2 1-.2 1.1 0 2.2.7 2.6 1.7.3.7.3 1.4-.1 2.1s-.8 1.2-1.5 1.4L6 29.7c-.3.2-.7.2-1 .2z"/><path class="st5" d="M9.6 23.3c.8 0 1.5.5 1.8 1.2.4 1-.1 2.2-1.1 2.6L5.7 29c-.3.1-.5.2-.7.2-.8 0-1.5-.5-1.8-1.2-.4-1 .1-2.2 1.1-2.6l4.6-1.8c.2-.2.4-.3.7-.3m0-1.5c-.5 0-.9.1-1.3.3l-4.6 1.8c-1.8.7-2.7 2.8-1.9 4.6.5 1.3 1.8 2.2 3.2 2.2.5 0 .9-.1 1.3-.3l4.6-1.8c.9-.4 1.5-1 1.9-1.8.4-.9.4-1.8.1-2.7-.6-1.4-1.9-2.3-3.3-2.3z"/></g></svg>