<svg version="1.1" id="Layer_1" xmlns="http://www.w3.org/2000/svg" x="0" y="0" viewBox="0 0 150 60" xml:space="preserve"><style>.st0{opacity:.4;fill:#f9c21f;enable-background:new}.st1{fill:#020000}.st2{fill:#73b62b}.st3{fill:#fff}.st4{fill:#fcc41e}</style><path class="st0" d="M72.5 52.9C44.1 48.7-36.6 25 20.8 3.2c-51 22.7 18.2 36.3 46.7 40.5l5 9.2z"/><path class="st0" d="M70 48.5c-29.2-3-107-22.9-49.3-45.3-44.6 19.2 16 33.5 45.3 36.5l4 8.8z"/><path class="st1" d="M103 39.2c-4 6-10.6 10-18.3 10s-14.5-4-18.3-10c-2.4 2.2-3.8 4.7-3.8 7.5 0 7.4 10 13.4 22.2 13.4S107 54 107 46.7c-.2-2.9-1.6-5.4-4-7.5z"/><path class="st2" d="M66.6 26.4c.5-5.1 2.8-9.5 6.4-12.9-10.2-5.8-19 2.7-25.5-8.1-2.1 10.8-10.8 12.4-19 10.5 3.3 10.3 7.9 19 25.2 17.2 4.6-.5 11.1.7 14.6 4.4-1.4-3.4-2.1-7.1-1.7-11.1z"/><path class="st1" d="M84.6 7C73.8 7 65 15.8 65 26.6s8.7 19.6 19.6 19.6 19.6-8.7 19.6-19.6C104.1 15.8 95.3 7 84.6 7m0 32.5c-5.7 0-10.5-3.6-11.8-8.1h23.6c-1.3 4.4-6.1 8.1-11.8 8.1"/><path class="st3" d="M93.1 25l-3.9 2 .8-4.2-3.1-3 4.3-.6 1.9-3.9 1.9 3.9 4.2.6-3 3 .7 4.2z"/><path class="st2" d="M72.9 21.5h7.7v2.7h-7.7z"/><path class="st3" d="M137 7L120.9.3c-2.3-.9-5 .1-5.9 2.4L97.6 43.9c-.9 2.3.1 5 2.4 5.9l23.2 9.7c2.3.9 5-.1 5.9-2.4l14.2-33.7L137 7z"/><path class="st4" d="M137 7L120.9.3c-2.3-.9-5 .1-5.9 2.4L97.6 43.9c-.9 2.3.1 5 2.4 5.9l23.2 9.7c2.3.9 5-.1 5.9-2.4l14.2-33.7L137 7zm-12.8 46.2l-20.4-8.6 8.6-20.4 20.4 8.6-8.6 20.4z"/><path class="st1" d="M149.6 43.1c-2.2 12.4-13.4 13.2-15.2 12.9-2.8-.5-4.6-3.2-4.1-5.9.5-2.8 3.2-4.6 5.9-4.1h.1-.1c-2.8-.5-4.6-3.2-4.1-5.9.5-2.8 3.2-4.6 5.9-4.1h.1v-.1c-.2 0-.4-.1-.5-.1-2.8-.5-4.6-3.2-4.1-5.9.5-2.8 3.2-4.6 5.9-4.1 1.9.2 12.7 3.2 10.2 17.3zM61 49c3.1 5-.6 8.7-1.3 9.1-1.1.6-2.6.4-3.3-.8-.7-1.2-.4-2.6.8-3.3h0c-1.1.6-2.6.4-3.3-.8-.6-1.1-.4-2.6.8-3.3h.1c-.1.1-.1.1-.2.1-1.1.6-2.6.4-3.3-.8-.6-1.1-.4-2.6.8-3.3.8-.3 5.5-2.6 8.9 3.1z"/><path class="st4" d="M34.2 36.8l-1.2.7.2-1.4-1-.9 1.4-.3.6-1.2.6 1.2 1.4.3-1 .9.2 1.4zM48 45.5l-1.4-.4 1.1-.8-.2-1.5 1.2.8 1.3-.5-.4 1.4.9 1-1.4.1-.7 1.2zM25.5 44h-.6l.5-.5-.2-.6.5.3.6-.4-.1.7.4.3-.5.2-.3.5zM19.6 35.9l-.6-.1.5-.4-.1-.6.5.2.5-.3-.1.7.5.4-.6.1-.3.5zM6.9 25.3l-.6-.1.4-.4-.1-.6.5.3.6-.4-.1.6.4.4-.6.1-.2.6zM53.4 41.5l-.4.8-.4-.8-.8-.1.5-.6-.1-.8.8.4.7-.5-.1.9.6.6zM38.5 43.3l-.3.8-.5-.8-.8-.1.6-.6-.1-.8.8.4.7-.5-.2.9.7.6zM43.5 35.9l-.5-.1.4-.4-.2-.6.6.2.5-.3-.1.7.4.4-.5.1-.2.5zM41.9 48.8l-.6-.1.4-.4-.2-.6.6.3.5-.3-.1.6.5.3-.6.1-.2.6zM61 41.4l-.2 1.3-.9-1-1.4.1.7-1.2-.5-1.3 1.3.4 1.1-.9.1 1.4 1.2.7z"/></svg>