<svg xmlns="http://www.w3.org/2000/svg" viewBox="0 0 24 24"><path fill="#fff" d="M3.88,14.48c1.36,1.63,3,3,4.3,4.68a.62.62,0,0,0,.88,0c3.51-3.77,7.59-7,11.14-10.72a.64.64,0,0,0-.13-1c-1.15-.87-1.68-2.39-3.05-3a.65.65,0,0,0-.86.23c-2,3-5.11,5.63-7.62,8.19l1,.13A18.62,18.62,0,0,0,7.1,10.25a.63.63,0,0,0-1,.13,19.34,19.34,0,0,1-2.37,2.74c-.54.59.34,1.48.89.88a20.16,20.16,0,0,0,2.55-3l-1,.13a16.07,16.07,0,0,1,2.23,2.5.64.64,0,0,0,1,.13c2.6-2.67,5.72-5.39,7.81-8.45l-.86.22c1.16.51,2,2.2,3.06,3l-.13-1c-3.54,3.73-7.63,7-11.13,10.72h.88c-1.35-1.65-2.94-3.05-4.3-4.68-.51-.62-1.39.27-.88.88Z"/></svg>