<svg xmlns="http://www.w3.org/2000/svg" viewBox="-329.5 610.9 889.1 282.2">
	<g fill="#FFF">
		<path d="M333.9 716.9h-4.5v-20.8H326v-4.5h3.5v-8.4h4.5v8.4h4v4.5h-4v20.8zM358.6 716.9v-13.4c0-2 0-7.9-5.9-7.9-4 0-6.4 3-6.4 7.9v13.4h-4.5v-33.2h4.5v10.9c2.5-3.5 5.9-3.5 6.9-3.5 4 0 6.9 1.5 8.9 4.5 1 1.5 1.5 3.5 1.5 6.4v14.9h-5zM372.5 706.5c1 5 5 6.9 7.9 6.9 3.5 0 5.9-2 6.9-4h4.5c-2.5 6.4-7.9 8.4-11.9 8.4-6.9 0-12.9-5.9-12.9-12.9 0-7.4 5.9-12.9 12.9-12.9 6.9 0 12.4 5.4 12.9 12.9v2.5c.5-.9-20.3-.9-20.3-.9zm15.8-4c0-3.5-3.5-7.4-7.9-7.4-4.5 0-7.9 3.5-7.9 7.4h15.8zM443.3 716.9V703c0-2-.5-7.4-5.9-7.4-5.9 0-5.9 5.4-5.9 7.4v13.9H427V703c0-2 0-3.5-1-5-1-2-3-2.5-4.5-2.5-5.9 0-5.9 5.4-5.9 7.4v13.9h-4.5V692h4.5v2.5c1-1 2.5-3.5 6.9-3.5 3 0 6.4 1.5 7.9 4 1-1.5 2.5-4 8.4-4 4 0 6.9 1.5 8.9 4.5 1 1.5 1.5 3.5 1.5 5.9v14.9l-5.9.6zM466.1 717.3c-8.4 0-13.4-6.9-13.4-13.4 0-6.9 5.4-12.9 13.4-12.9 7.4 0 13.4 5.9 13.4 12.9-.1 6.5-5 13.4-13.4 13.4zm0-21.7c-5.4 0-8.9 4.5-8.9 8.9s3.5 8.9 8.9 8.9c5 0 8.9-4 8.9-8.9-.5-5-4-8.9-8.9-8.9zM483.9 716.9v-33.2h4.5v11.9c2-3 5-4 8.4-4 6.4 0 12.9 5.4 12.9 12.9 0 6.9-5.4 12.9-12.9 12.9-2.5 0-5.9-1-8.4-4.5v3.5l-4.5.5zm12.9-4c4.5 0 8.4-4 8.4-8.9 0-4.5-3.5-8.9-8.4-8.9s-8.4 4.5-8.4 8.9c-.1 5.9 4.4 8.9 8.4 8.9zM519.5 689.1H515v-5.4h4.5v5.4zm0 27.8H515v-24.8h4.5v24.8zM529.9 716.9h-4.5v-33.2h4.5v33.2zM539.3 706.5c1 5 5 6.9 7.9 6.9 3.5 0 5.9-2 6.9-4h4.5c-2.5 6.4-7.9 8.4-11.9 8.4-6.9 0-12.9-5.9-12.9-12.9 0-7.4 5.9-12.9 12.9-12.9 6.9 0 12.4 5.4 12.9 12.9v2.5c.5-.9-20.3-.9-20.3-.9zm16.4-4c0-3.5-3.5-7.4-7.9-7.4s-7.9 3.5-7.9 7.4h15.8zM346.3 766.4V753c0-2 0-7.9-5.9-7.9-4 0-6.4 3-6.4 7.9v13.4h-4.5v-24.8h4.5v2.5c2.5-3.5 6.4-3.5 7.4-3.5 4 0 6.9 1.5 8.9 4.5 1 1.5 1.5 3.5 1.5 6.4v14.9h-5.5zM361.6 756c1 5 5 6.9 7.9 6.9 3.5 0 5.9-2 6.9-4h4.5c-2.5 6.4-7.9 8.4-11.9 8.4-6.9 0-12.9-5.9-12.9-12.9 0-7.4 5.9-12.9 12.9-12.9 6.9 0 12.4 5.4 12.9 12.9v2.5c0-.9-20.3-.9-20.3-.9zm15.8-3.5c0-3.5-3.5-7.4-7.9-7.4-4.5 0-7.9 3.5-7.9 7.4h15.8zM393.3 766.4h-4.5v-20.8h-3.5v-4.5h3.5v-8.4h4.5v8.4h4v4.5h-4v20.8zM425 766.4h-2.5l-5.4-16.8-5.4 16.8h-2.5l-9.4-24.8h5l5.4 16.3 5-16.3h3l5 16.3 5.4-16.3h5l-8.6 24.8zM449.7 766.9c-8.4 0-13.4-6.9-13.4-13.4 0-6.9 5.4-12.9 13.4-12.9 7.4 0 13.4 5.9 13.4 12.9 0 6.4-5 13.4-13.4 13.4zm0-21.8c-5.4 0-8.9 4.5-8.9 8.9 0 4.5 3.5 8.9 8.9 8.9 5 0 8.9-4 8.9-8.9 0-4.5-3.9-8.9-8.9-8.9zM469 766.4v-24.8h4.5v2.5c2-3 5-3 6.4-3v5c-.5 0-2.5.5-3.5 1-1.5 1-3 2.5-3 6.4v13.4c.6-.5-4.4-.5-4.4-.5zM505.2 741.6l-8.9 11.9 10.4 13.4h-5.9l-9.9-12.9v12.9h-4.5v-33.2h4.5V754l8.9-11.9 5.4-.5zM328.4 816.4v-24.8h4.5v2.5c2-3 5-3 6.4-3v5c-.5 0-2.5.5-3.5 1-1.5 1-3 2.5-3 6.4v13.4c.1-.5-4.4-.5-4.4-.5zM348.2 791.6V805c0 5.9 3 7.9 5.9 7.9 4 0 6.4-2.5 6.4-7.9v-13.4h4.5v24.8h-4.5v-2.5c-1.5 2-4 3.5-7.4 3.5-3 0-5.4-1-6.9-2.5-2-2-3.5-4.5-3.5-9.4v-13.4h5.4v-.5zM388.8 816.4V803c0-2 0-7.9-5.9-7.9-4 0-6.4 3-6.4 7.9v13.4H372v-24.8h4.5v2.5c2.5-3.5 6.4-3.5 7.4-3.5 4 0 6.9 1.5 8.9 4.5 1 1.5 1.5 3.5 1.5 6.4v14.9h-5.5zM412.1 816.4v-33.2h4.5v11.9c2-3 5-4 8.4-4 6.4 0 12.9 5.4 12.9 12.9 0 6.9-5.4 12.9-12.9 12.9-2.5 0-5.9-1-8.4-4.5v3.5l-4.5.5zm12.9-4c4.5 0 8.4-4 8.4-8.9 0-4.5-3.5-8.9-8.4-8.9-5 0-8.4 4.5-8.4 8.9 0 5.9 3.9 8.9 8.4 8.9zM450.2 824.3h-5l3.5-8.9-9.9-24.3h5l7.4 19.3 7.4-19.3h5l-13.4 33.2zM488.3 824.3h-5l3.5-8.9-9.9-24.3h5l7.4 19.3 7.4-19.3h5l-13.4 33.2zM516.6 816.9c-8.4 0-13.4-6.9-13.4-13.4 0-6.9 5.4-12.9 13.4-12.9 7.4 0 13.4 5.9 13.4 12.9-.1 6.4-5 13.4-13.4 13.4zm0-21.8c-5.4 0-8.9 4.5-8.9 8.9 0 4.5 3.5 8.9 8.9 8.9 5 0 8.9-4 8.9-8.9-.5-4.5-4-8.9-8.9-8.9zM539.3 791.6V805c0 5.9 3 7.9 5.9 7.9 4 0 6.4-2.5 6.4-7.9v-13.4h4.5v24.8h-4.5v-2.5c-1.5 2-4 3.5-7.4 3.5-3 0-5.4-1-6.9-2.5-2-2-3.5-4.5-3.5-9.4v-13.4h5.4v-.5z"/>
	</g>
	<g fill="#FFF">
		<path d="M220.5 671.3c-2-.5-5-.5-7.4-.5-9.4 0-17.3 2-23.8 5.9-8.9 5.9-13.9 15.3-13.9 28.2v2.5h-30.2V706c0-10.4 5.9-15.3 17.8-15.3l4.5.5v-19.3c-2-.5-4.5-.5-7.9-.5-9.4 0-16.8 2-23.3 5.9-9.4 5.9-13.9 14.9-13.9 28.2v73.8h-15.3c-2.5 0-4-1.5-4-4v-34.2c0-24.3-12.9-36.6-39.6-36.6-7.9 0-14.4 1-20.3 3.5-8.4 3-13.4 7.9-13.4 15.3v9.4h20.8v-5c0-2 1.5-4 4.5-5 2-1 4.5-1.5 7.4-1.5 5.9 0 10.4 1.5 12.9 4s4 7.4 4 13.9v.5h-3c-12.9 0-23.8 1.5-32.7 5-14.4 5-21.3 13.9-21.3 25.7 0 8.9 3 15.8 9.4 20.8 5.9 5 13.4 7.4 21.8 7.4s15.3-2.5 21.3-7.9c2.5-2.5 5-5.4 5.9-8.4h.5l-.5 4c0 3 1 5.4 2.5 7.4 2 2 5 3 8.9 3h51v-72.8h30.2v72.8h22.3v-72.8H216v-18.3h-20.3V704c0-10.4 5.9-15.3 17.8-15.3l5 .5 2-17.9zM77.4 756.5h4v2.5c0 5.4-2 11.4-5.9 15.8-4 5-8.9 7.9-14.9 7.9-4.5 0-7.9-1-10.4-3.5-2-2.5-3.5-5.4-3.5-8.4.5-9.4 10.4-14.3 30.7-14.3M-9.2 715.4v2.5h-.5c-1-2-3.5-4.5-6.4-6.4-5.9-4.5-12.9-6.9-21.8-6.9-12.9 0-22.8 4.5-30.2 13.4-6.9 7.9-10.4 19.3-10.4 32.2 0 13.4 3.5 23.8 10.9 32.2 7.4 8.9 17.8 13.4 30.2 13.4 11.4 0 19.8-4 25.7-11.4v9.4c0 7.4-2.5 13.4-7.4 17.3-4.5 3.5-10.4 5-17.8 5-5.9 0-11.9-1-18.3-3.5l-7.4-3-6.9 17.8c9.9 5 20.3 7.9 32.2 7.9 13.4 0 24.3-3.5 33.2-9.9 9.9-7.4 15.3-18.3 15.3-33.2v-62.4c0-2.5 1.5-4 4-4H22v-19.3H.7c-3.5 0-5.4 1-7.4 2.5-1.5 2.4-2.5 4.4-2.5 6.4m-40.6 15.8c4-4.5 8.9-6.4 15.8-6.4 15.3 0 22.8 8.9 22.8 26.2 0 9.4-2 16.3-6.4 20.8-4 4-8.9 5.4-14.9 5.4-7.4 0-12.9-3-16.8-7.9s-5.9-11.9-5.9-19.8 2-13.8 5.4-18.3M-81 724.8V707h-19.8v-1.5c0-10.4 5.4-15.3 17.3-15.3l4.5.5v-19.3c-2-.5-4.5-.5-7.4-.5-9.4 0-17.3 2-23.8 5.4-8.9 5.9-13.9 15.3-13.9 28.2v2.5h-30.2v-1.5c0-10.4 5.4-15.3 17.8-15.3l5 .5v-19.3c-2-.5-5-.5-7.9-.5-9.4 0-16.8 2-23.3 5.4-9.4 5.9-13.9 15.3-13.9 28.2v74.3h-16.8c-2.5 0-4-1-4-4v-55.9c0-4.5-1-7.4-3-9.4-2-1.5-4.5-2.5-8.9-2.5h-42.1c-3.5 0-5.9 1-7.4 2.5s-2 3.5-2 5.9c-.5 1-.5 1.5 0 2h-.5c-1.5-2-3.5-4.5-5.9-6.4-5.9-4-12.9-6.4-21.8-6.4-12.9 0-22.8 4.5-30.2 13.4-6.9 7.9-9.9 18.8-10.4 31.7.5 12.9 4 23.8 10.9 32.7 7.4 8.9 17.3 13.4 30.2 13.4 11.4 0 19.8-4 25.2-11.4v8.9c0 7.9-2.5 13.4-7.4 17.3-4.5 3.5-10.4 5-18.3 5-5.9 0-11.9-1-17.8-3l-7.4-3-6.9 17.8c9.9 5 20.8 7.9 32.2 7.9 13.4 0 23.8-3.5 32.7-9.9 9.9-7.4 15.3-18.8 15.3-33.2v-62.4c0-2 1.5-3.5 4-3.5h13.4c2.5 0 4 1 4 4v55.4c0 4.5 1 7.4 3 8.9 1.5 2 4.5 3 8.9 3h54v-72.8h30.2V798h22.8v-73.3H-81zm-219.8 6.4c4-4.5 8.9-6.9 16.3-6.9 15.3 0 22.8 8.9 22.8 26.2 0 9.4-2 16.8-6.9 21.3-3.5 3.5-8.4 5.4-14.9 5.4-6.9 0-12.9-3-16.8-7.9s-5.9-11.9-5.9-19.8 1.5-13.8 5.4-18.3"/>
		<path d="M-219.6 670.8h22.8v22.8h-22.8z"/>
	</g>
	<path fill="#FFF" d="M270.5 610.9h5v282.2h-5z"/>
</svg>