<?xml version="1.0" encoding="utf-8"?><svg width="3750" height="150" viewBox="0 0 3750 150" xmlns="http://www.w3.org/2000/svg" xmlns:xlink="http://www.w3.org/1999/xlink"><svg id="src-svg-modals-close" viewBox="0 0 150 150" width="150" height="150" xmlns="http://www.w3.org/2000/svg"><style>.aast0{fill:none}.aast1{fill:#000}</style><path class="aast0" d="M-423 472h894"/><path class="aast1" d="M106.125 75L150 31.125 118.875 0 75 43.875 31.125 0 0 31.125 43.875 75 0 118.875 31.125 150 75 106.125 118.875 150 150 118.875z"/></svg><svg viewBox="0 0 150 150" width="150" height="150" id="src-svg-top_nav-4G" x="150" xmlns="http://www.w3.org/2000/svg"><path d="M107.9 104.1h38.4c.3-2.8.5-5.8.5-8.7 0-6.2-.8-12.2-2.3-18l-36.6 26.7zM113.8 85.9l-24.3 17.7-2 1.5v2.5c-.1 5.3-2.9 10-7.4 12.4-2.1 1.1-4.4 1.7-6.7 1.7-5.1 0-9.9-2.8-12.3-7.4-3.7-6.8-1.1-15.3 5.7-19 2-1.1 4.3-1.7 6.6-1.7 2.9 0 5.7.9 8.1 2.5l2.2 1.5 2.5-1 27.6-10.7m33.7-18.4L84.2 92c-3.2-2.2-7-3.4-10.9-3.4-3.1 0-6.1.7-9 2.3-9.2 5-12.7 16.5-7.7 25.8 3.4 6.4 10 10 16.7 10 3.1 0 6.2-.7 9.1-2.3 6.4-3.4 9.9-10 10-16.7l55.1-40.2z"/><g><path d="M139.4 64l-4.4 1.8c-3.1-3.4-8.5-7.9-16.2-9.1 0 0 5.7 3 10.8 11.2l-3.8 1.5c-2.6-3.3-8.5-9.2-17.5-10.5 0 0 6.5 3.3 11.7 12.8l-3.7 1.5c-1.9-2.6-8.1-10.5-18.5-12.1 0 0 7.2 3.7 12.6 14.2l-25.5 9.9c-3.4-1.8-7.5-2.6-11.5-2.6-4.2 0-8.3 1.1-12.1 3.1-7.3 3.9-11.8 11-12.8 18.5H3c-.3-3-.5-5.9-.5-8.8 0-39.8 32.3-72.1 72.1-72.1 28.6.1 53.3 16.6 64.8 40.7zm-84.8-5.8h-3.2v-18h-6.9L31.6 58.6V64h12.7v5h7v-5h3.2l.1-5.8zm32.5-5.4H70v5.9h8.5c-.4 1.4-1.2 2.5-2.4 3.3-1.2.9-2.6 1.3-4.5 1.3-3.6 0-7.8-2.5-7.8-8.5 0-5.7 4.2-8.3 7.8-8.3 2.1 0 3.6.8 4.8 1.9.7.5 1.1 1.3 1.5 2h8.2C84.5 44.6 78.6 40 71.8 40c-8.4-.1-15.3 6.1-15.3 14.7 0 8.2 6.6 15 15.2 15 4.7 0 11.2-2.4 13.9-8.7 1.3-2.9 1.6-6.2 1.5-8.2z"/><path d="M44.9 58.2v-9l-5.7 9z"/></g></svg><svg viewBox="0 0 150 150" width="150" height="150" id="src-svg-top_nav-blog2" x="300" xmlns="http://www.w3.org/2000/svg"><path d="M136.4 49.3c-4.5 5.2-6.1 7.1-6.1 7.2L83.6 16.7s.9-1.1 6.1-7.2c9.2-10.8 21.8-1.7 21.8-1.7l23.2 19.7s10.9 11 1.7 21.8zM80.1 20.7l46.7 39.8-58.7 68-40.5 12.4-17.7 4.9 3.5-17 8-40 58.7-68.1zM57.9 126.4L24.6 98.1l-5.7 28.8 9.9 8.4 29.1-8.9z"/></svg><svg viewBox="0 0 150 150" width="150" height="150" id="src-svg-top_nav-bulb" x="450" xmlns="http://www.w3.org/2000/svg"><path d="M51.4 132.1h47.4v14.8H51.4v-14.8zm0-5.1h47.4v-9.7H51.4v9.7zm70.5-79.7c0 12.9-5 21.4-10.3 29.7-4.1 6.5-8.3 12.6-10.7 20.6-1.3 4.3-2.1 9.2-2.1 14.6H51.2c0-5.4-.8-10.3-2.1-14.6C46.5 89.3 42 82.7 37.8 76c-5-7.9-9.5-16.3-9.5-28.7C28.3 15 51.9 3.4 74.1 3.1H75.9c22.1.3 45.8 11.9 46 44.2zm-5 0c-.1-13.2-4.4-23.4-12.9-30.2-7.1-5.6-17-8.8-28.1-9H74.1C63 8.3 53 11.5 46 17.1 37.6 23.9 33.3 34 33.3 47.3c0 11.3 4.1 18.8 8.7 26 .5.7.9 1.5 1.4 2.2 3.9 6.2 8 12.6 10.5 20.6 1.1 3.6 1.8 7.3 2.1 11.1h38c.3-3.8 1-7.5 2.1-11 2.3-7.8 6.2-13.9 10-19.8.4-.7.9-1.3 1.3-2 5.4-8.5 9.5-15.9 9.5-27.1z"/></svg><svg viewBox="0 0 150 150" width="150" height="150" id="src-svg-top_nav-community" x="600" xmlns="http://www.w3.org/2000/svg"><path d="M28.9 81.1c8.9 0 16.8-4.3 21.8-10.8 5.7 7.3 14.5 11.9 24.5 11.9 9.8 0 18.6-4.6 24.3-11.7 5 6.5 12.9 10.7 21.7 10.7 15.1 0 27.4-12.3 27.4-27.4 0-15.2-12.3-27.5-27.4-27.5-7.7 0-14.7 3.2-19.7 8.4C96 26 86.3 20.2 75.3 20.2c-11.3-.1-21 5.8-26.5 14.6-5-5.3-12.1-8.6-19.9-8.6-15.1 0-27.4 12.3-27.4 27.5 0 15.1 12.3 27.4 27.4 27.4zm92.2-50.3c12.6 0 22.8 10.3 22.8 22.9 0 12.6-10.2 22.8-22.8 22.8-7.9 0-14.8-4-18.9-10.1.9-1.6 1.7-3.3 2.3-5 2.8 6.7 9.3 11.2 16.6 11.2 8.1 0 15.5-5.8 17.5-13.8l.7-2.9h-33.4c.2-1.6.4-3.2.4-4.8 0-4.4-.9-8.5-2.5-12.3 4.1-4.9 10.3-8 17.3-8zm-12 29.8H133c-2.3 4.4-6.9 7.4-12 7.4-4.9 0-9.5-3-11.9-7.4zm-15.3-1.8c-2 7.1-9.6 12.9-18.7 12.9-9 0-16.7-5.8-18.7-12.9h37.4zm-64.9-28c7.1 0 13.4 3.3 17.6 8.4-1.6 3.7-2.4 7.7-2.4 12 0 1.7.1 3.3.4 4.9H10.7l.7 2.9c2 8 9.3 13.8 17.4 13.8 7.4 0 14.2-4.9 16.8-11.8.6 1.9 1.4 3.7 2.4 5.4-4.1 6.2-11.1 10.3-19.1 10.3C16.3 76.5 6 66.3 6 53.7 6 41 16.3 30.8 28.9 30.8zm11.8 29.8C38.5 65 33.8 68 28.8 68s-9.6-3-11.8-7.4h23.7zm107.9 50.8c-.1-10.4-5.9-23.3-12.6-28.4l-1.3-.9-1.3.9c-.8.5-2.5 1.2-4.9 1.8-.3 0-.5.1-.7.1h-.1c-2.4.6-4.5.9-6.5.9-2.7 0-5-.3-7.1-.9h-.1c-2-.5-4-1.2-5.1-1.9l-1.3-.9-1.3 1c-2.9 2.2-5.6 5.7-7.7 9.9-2-3.2-4.3-5.9-6.7-7.8-5 2.4-10.7 3.8-16.7 3.8s-11.7-1.4-16.8-3.9c-2.4 1.8-4.7 4.6-6.7 7.8-2.1-4.2-4.8-7.8-7.8-10l-1.1-.8-1.2.6-.1.1-.6.3c-.5.2-1 .5-1.5.8-7.8 3-15.9 2.5-23-.9l-1.4-.7-1.1.9c-6.7 5.1-12.4 18.1-12.4 28.2v12h42.6v6.4h62.2v-6.4h42.3v-12zM6.1 118.8v-7.4c0-8.3 4.4-18.9 9.5-23.7 7.9 3.4 16.8 3.7 25.4.4l.4-.2c.2-.1.5-.3.8-.4 2.6 2.4 5 6.2 6.8 10.5-3 6.3-4.9 13.6-4.9 19.9v1h-38zm138 0h-37.8v-1c-.1-6.3-2-13.5-5-19.8 1.7-4.2 4.1-8 6.7-10.3 1.4.7 3.1 1.2 4.9 1.7 2.5.7 5.2 1.1 8.3 1.1 2.3 0 4.8-.3 7.5-1 .1 0 .2 0 .2-.1h.2l.3-.1c2.1-.6 3.7-1.1 4.9-1.7 5.2 4.8 9.6 15.4 9.7 23.8v7.4z"/></svg><svg viewBox="0 0 150 150" width="150" height="150" id="src-svg-top_nav-find-out-more" x="750" xmlns="http://www.w3.org/2000/svg"><path d="M148.5 30.9c0-9.4-5.2-14.6-14.6-14.6H47.8c-9.4 0-14.6 5.2-14.6 14.6V55c-6.6 6-10.7 14.7-10.7 24.3 0 5.6 1.4 11.1 4.2 16L-2 124.1l13.1 13.1L40 108.3c4.7 2.5 10 3.9 15.5 3.9 12 0 22.5-6.4 28.2-16l31.5 24.8V90.3H134c9.4 0 14.6-5.2 14.6-14.6V30.9h-.1zm-93 76.3c-5.3 0-10.2-1.4-14.6-4.1l-1.7-1.1-28.1 28.1-6.1-6L33 96l-1.1-1.7c-2.9-4.5-4.4-9.7-4.4-15.1 0-15.4 12.5-27.9 27.9-27.9 15.4 0 28 12.5 28 27.9 0 15.5-12.5 28-27.9 28zm44.2-35.6H89.3V61.4h10.4v10.2zm4.7-20.8c-3.9 3.6-4.5 4.8-4.7 6.7H89.2c.1-4.3 2.3-6.8 6.3-10.7 3-3 4-4.8 4-6.6 0-2.1-1.1-3.7-3.5-3.7-3.3 0-3.9 2.5-4 4.5-.1.4-.1.9-.1 1.3h-11c-.1-.5-.1-.7-.1-1.1 0-8.6 6.6-15 15.9-15 9.4 0 14.5 6.8 14.5 12.8 0 5.5-3.5 8.8-6.8 11.8zm-49 6c-12.4 0-22.5 10.1-22.5 22.5s10.1 22.5 22.5 22.5 22.5-10.1 22.5-22.5-10.1-22.5-22.5-22.5zm0 40c-5.5 0-10.4-2.5-13.6-6.5H69c-3.2 4-8.1 6.5-13.6 6.5z"/></svg><svg viewBox="0 0 150 150" width="150" height="150" id="src-svg-top_nav-getting-started" x="900" xmlns="http://www.w3.org/2000/svg"><path d="M147.1 3.9H99.4l8.4 8.4-52.7 53L67 77.1 44.2 100l6.7 6.7 22.9-22.9 10 10 23.6-23.6L136.6 41l10.5 10.6V3.9zM95.5 75.1L66.8 60.7l7.1-7.1 28.8 14.3-7.2 7.2zm18.3-18.3L85 42.4l7.1-7.1 28.8 14.4-7.1 7.1zm28.3-17.3L111.5 8.9h30.6v30.6zM88.5 105l-15.2 10.3-18.2-2.7 10.4 15.1-3 18.3 15.2-10.6 18.4 3-10.6-15.3 3-18.1zm-12 25.2l-7.2 5 1.4-8.7-5-7.3 8.8 1.3 7.2-4.9-1.4 8.7 5 7.3-8.8-1.4zM29.3 98.7l5.4-17.6 16.1-9.2-17.6-5.3L24 50.3l-5.3 17.9-16.2 8.9 17.8 5.6 9 16zm-6.4-27.1l2.5-8.5 4.4 7.7 8.4 2.5-7.7 4.4-2.6 8.4-4.3-7.6-8.4-2.6 7.7-4.3zm8.9 29.8l-11.6 14.5-18.4 2.4 14.4 11.5 2.6 18.4 11.5-14.3 18.4-2.4-14.3-11.6-2.6-18.5zm-4.2 27.8l-5.5 6.9-1.2-8.8-6.8-5.5 8.8-1.2 5.6-6.9 1.2 8.8 6.9 5.6-9 1.1z"/></svg><svg version="1.1" id="src-svg-top_nav-goodybag" x="1050" viewBox="0 0 150 150" xml:space="preserve" width="150" height="150" xmlns="http://www.w3.org/2000/svg"><style>.ahst0{fill:url(#ahSVGID_1_)}</style><path d="M104.9 31.3C104.7 15 91.4 1.9 75 1.9S45.2 15.2 45.1 31.3H26.2v116.8h97.6V31.3h-18.9zM75 12c10.7 0 19.5 8.6 19.6 19.3H55.2C55.5 20.6 64.3 12 75 12"/><linearGradient id="ahSVGID_1_" gradientUnits="userSpaceOnUse" x1="55.015" y1="779.829" x2="94.863" y2="779.829" gradientTransform="translate(0 -692.1)"><stop offset="0" stop-color="#fff"/><stop offset="1" stop-color="#e5e6e7"/></linearGradient><path class="ahst0" d="M88.9 85.8v7.9H70.2v12.8h24.5v8H55v-5.9l6-1.8V93.5h-6v-7.9h6v-6.9c0-5.5 1.7-10.1 4.6-13.2 2.9-3 7.2-4.6 12.6-4.6 8.4 0 13 3.7 16.6 8.4l-7.1 5.6c-2.8-3.5-5.2-5.5-9.5-5.5-2.3 0-4 .8-5.5 2.1-1.5 1.8-2.5 4.2-2.5 7.4v6.8h18.7z"/></svg><svg viewBox="0 0 150 150" width="150" height="150" id="src-svg-top_nav-login-2" x="1200" xmlns="http://www.w3.org/2000/svg"><path d="M53.3 108.8L103.8 74 53.2 39.2v18.5H4v32.6h49.3v18.5zM9 85.3V62.7h49.2v-14L95 74 58.3 99.3v-14H9z"/><path d="M52.5 9.2v23.3h68.4v83.1H52.5v25.3H146V9.2z"/></svg><svg viewBox="0 0 150 150" width="150" height="150" id="src-svg-top_nav-man" x="1350" xmlns="http://www.w3.org/2000/svg"><path d="M106.8 88.4c-4.4 2.7-14.2 5.1-22.1 5.1S66.9 91 62.5 88.4c0 0-35.8 5.2-44.9 51.2h22.3v8.5h89.5v-16c0-15.7-12.2-36-22.6-43.7zm-82.9 46.2c4-14.6 11.4-25.8 22-33.5 3.1-2.2 6.2-3.9 8.8-5-7.9 9.7-14.8 24.1-14.8 36v2.5h-16zM84.7 84.6c22.9 0 41.3-18.6 41.3-41.4 0-22.8-18.5-41.4-41.3-41.4S43.3 20.3 43.3 43.2s18.5 41.4 41.4 41.4zm13.9-57l4-8.1 4.1 8.1 9 1.4-6.5 6.3 1.6 8.9-8.2-4.2-8 4.2 1.5-8.9-6.5-6.3 9-1.4zm-38.7 4.9h16.4v5.6H59.9v-5.6zm49.7 20.8c-2.8 9.4-12.8 17.2-24.9 17.2-12.1 0-22.3-7.7-24.9-17.2h49.8z"/></svg><svg viewBox="0 0 150 150" width="150" height="150" id="src-svg-top_nav-market" x="1500" xmlns="http://www.w3.org/2000/svg"><path d="M89.4 53c-12.8 0-23.2 10.4-23.2 23.2 0 12.8 10.4 23.2 23.2 23.2 12.7 0 23.1-10.4 23.1-23.2 0-12.8-10.4-23.2-23.1-23.2zm0 41.5c-2.3 0-4.5-.5-6.6-1.2V59.1c2-.8 4.3-1.2 6.6-1.2 10 0 18.2 8.2 18.2 18.3 0 10.1-8.2 18.3-18.2 18.3zm47.5 15.2V31c.1-4.9-3.9-8.9-8.7-8.9H82.8c-.2-5.8-4.9-10.3-10.6-10.3h-59c-5.8 0-10.6 4.7-10.6 10.6v105.4c0 5.8 4.7 10.6 10.6 10.6h59c5.8 0 10.6-4.7 10.6-10.6H128.1l7.5 7.5 13.4-13.4-12.1-12.2zM82.8 34.5h42.3v63.4l-5.8-5.8c2.6-4.8 4-10.3 4-16 0-18.6-15.2-33.8-33.8-33.8-2.3 0-4.5.2-6.7.7v-8.5zm-40.1 96.1c-4.1 0-7.5-3.3-7.5-7.5 0-4.1 3.3-7.5 7.5-7.5 4.1 0 7.5 3.3 7.5 7.5s-3.3 7.5-7.5 7.5zM68.5 108H16.7V26.5h51.8v23.2c-7.8 6.2-12.9 15.8-12.9 26.6 0 10.7 5 20.3 12.9 26.5v5.2zm35 13.5c-3.4 0-6.3-2.8-6.3-6.3s2.9-6.3 6.3-6.3 6.3 2.9 6.3 6.3-2.9 6.3-6.3 6.3zm3.3-22.1l-1.7 1.1c-4.7 3-10.1 4.6-15.7 4.6-15.9 0-28.9-13-28.9-28.9 0-16 13-29 29-29 15.9 0 28.9 13 28.9 28.9 0 5.4-1.5 10.7-4.2 15.1l-1 1.7 28.9 28.9-6.5 6.5-28.8-28.9z"/></svg><svg viewBox="0 0 150 150" width="150" height="150" id="src-svg-top_nav-my-giffgaff" x="1650" xmlns="http://www.w3.org/2000/svg"><path d="M75 2.4c-24.6 0-44.5 19.9-44.5 44.5S50.4 91.4 75 91.4s44.5-19.9 44.5-44.5S99.6 2.4 75 2.4m0 77.1c-14.6 0-26.8-10.7-30-23.8h60c-3.2 13.1-15.4 23.8-30 23.8M118.3 129.8c-1.6-13.8-10.3-25.5-19.4-34.3C91.6 99 83.6 101 75 101s-16.6-2-23.8-5.5c-9.2 8.8-17.9 20.5-19.4 34.3-.3 2.7-.4 5.2-.3 7.5 12.4 6.5 27.4 10.3 43.5 10.3s31.1-3.8 43.5-10.3c.2-2.3.1-4.8-.2-7.5"/></svg><svg version="1.1" id="src-svg-top_nav-my-giffgaff-white" x="1800" viewBox="0 0 150 150" xml:space="preserve" width="150" height="150" xmlns="http://www.w3.org/2000/svg"><style>.amst0{fill:#fff}</style><path class="amst0" d="M75 2.4c-24.6 0-44.5 19.9-44.5 44.5S50.4 91.4 75 91.4s44.5-19.9 44.5-44.5S99.6 2.4 75 2.4m0 77.1c-14.6 0-26.8-10.7-30-23.8h60c-3.2 13.1-15.4 23.8-30 23.8M118.3 129.8c-1.6-13.8-10.3-25.5-19.4-34.3C91.6 99 83.6 101 75 101s-16.6-2-23.8-5.5c-9.2 8.8-17.9 20.5-19.4 34.3-.3 2.7-.4 5.2-.3 7.5 12.4 6.5 27.4 10.3 43.5 10.3s31.1-3.8 43.5-10.3c.2-2.3.1-4.8-.2-7.5"/></svg><svg version="1.1" id="src-svg-top_nav-my-giffgaff-yellow" x="1950" viewBox="0 0 150 150" xml:space="preserve" width="150" height="150" xmlns="http://www.w3.org/2000/svg"><style>.anst0{fill:#fdc41f}</style><path class="anst0" d="M75 2.4c-24.6 0-44.5 19.9-44.5 44.5S50.4 91.4 75 91.4s44.5-19.9 44.5-44.5S99.6 2.4 75 2.4m0 77.1c-14.6 0-26.8-10.7-30-23.8h60c-3.2 13.1-15.4 23.8-30 23.8M118.3 129.8c-1.6-13.8-10.3-25.5-19.4-34.3C91.6 99 83.6 101 75 101s-16.6-2-23.8-5.5c-9.2 8.8-17.9 20.5-19.4 34.3-.3 2.7-.4 5.2-.3 7.5 12.4 6.5 27.4 10.3 43.5 10.3s31.1-3.8 43.5-10.3c.2-2.3.1-4.8-.2-7.5"/></svg><svg viewBox="0 0 150 150" width="150" height="150" id="src-svg-top_nav-my-phone" x="2100" xmlns="http://www.w3.org/2000/svg"><path d="M119.2 34.4l-.8-.1c-2-.2-3.9.3-5.5 1.3l1.7-19.5c.4-5.1-3.4-9.6-8.6-10L54.1 1.6C49 1.2 44.4 5.1 44 10.1l-.6 7.2-.7-.7c-3.5-3.4-9.2-3.3-12.6.1l-.6.6c-3.4 3.5-3.3 9.2.2 12.6l4.3 4.2c-2.3 0-4.5.9-6.1 2.6l-.7.7c-3.3 3.6-3.3 9.3.2 12.6l6.3 6.2c-2.8-.4-5.7.4-7.7 2.5l-.7.7C22 63 22 68.7 25.5 72l9.7 9.5c-2.7-.4-5.6.5-7.6 2.5l-.7.7c-3.3 3.6-3.3 9.3.2 12.6l6.9 6.8 3.4 4.1c.5.9 1.2 1.6 1.9 2.3l2 2.4c3.2 3.7 14 16.2 20.8 19.2 3 1.3 6.9 9.6 8.6 15l.6 1.7h55.1l-1.8-3.6c-7.1-14.4-13-32-10.4-35.2 10.1-12 9.7-28.4 9.6-30.6l3.7-35.3V44c.2-4.8-3.5-9.1-8.3-9.6zm-54.3 67c.3-3.7 3.5-6.3 7.2-6 3.7.3 6.3 3.5 6 7.2-.4 3.6-3.6 6.3-7.2 6-3.7-.3-6.3-3.5-6-7.2zM56 14.9l45.6 4-6.3 71.7-31.8-2.8c.2-2.6-.7-5.2-2.6-7.1l-9.8-9.6.4-4.5c1.2-.4 2.3-1.1 3.2-2.1l.6-.7c3.3-3.6 3.3-9.3-.2-12.6L53 49.1l3-34.2zm-23 6l.6-.6c.8-.8 1.8-1.1 2.8-1.1 1 0 2 .4 2.7 1.1l3.6 3.6-1 11.2-8.8-8.6c-1.3-1.6-1.4-4.1.1-5.6zm-2.3 20l.6-.6c1.4-1.5 4-1.5 5.5 0l14.8 14.5c1.5 1.4 1.5 4-.1 5.7l-.5.6c-1.4 1.4-4 1.4-5.5 0L30.7 46.5c-1.4-1.4-1.5-4 0-5.6zm-1.9 22l.6-.6c1.4-1.5 4-1.5 5.5 0l22.4 22c1.5 1.4 1.5 4-.1 5.7l-.5.6c-1.4 1.4-4 1.4-5.5 0L28.8 68.5c-1.4-1.4-1.4-4 0-5.6zm1.6 25.4l.6-.6c.7-.7 1.7-1.1 2.8-1.1 1 0 2 .4 2.8 1.1l14.7 14.6c1.5 1.4 1.5 3.9.1 5.5l-.5.4-.2.2c-.5.5-1.1.8-1.8 1-.9-.1-1.7-.1-2.4-.1-.5-.2-.9-.4-1.3-.8L30.4 93.8c-1.5-1.4-1.4-4 0-5.5zm88.3-8.7c0 .2.9 16.2-8.4 27.4-5.2 6.4 3.3 26.8 8.1 37H74.8c-4.5-13.2-9.8-16-10.8-16.4-3.7-1.6-9.7-7.4-14.9-13.2h.2c4.7.3 12.5.7 25.7 1.2l21.2 1.8c5.1.4 9.7-3.4 10.2-8.5l4.1-46.5c1.1-7 2.2-13.8 3.1-19.2v-.1c.3-2.3 2.1-3.9 4.2-3.7l.9.1c2.1.2 3.8 2.2 3.7 4.3l-3.7 35.4v.4z"/></svg><svg viewBox="0 0 150 150" width="150" height="150" id="src-svg-top_nav-p2p" x="2250" xmlns="http://www.w3.org/2000/svg"><path d="M122.7 114.9c-.6-1.3-1.4-2.4-2.5-3.3 12.2-11.5 19.8-27.9 19.8-46 0-34.9-28.4-63.4-63.4-63.4S13.3 30.6 13.3 65.6c0 13.2 4.1 25.5 11 35.7-2.4 1.4-4.8 2.9-6.5 3.8-3.2 1.8-6.7 4.5-8.3 10.7-.1.3-.1.6-.1.9.6 5.7 1.6 12.9 2.6 14.7 1.9 3.2 6.5 4.4 7.3 4.6l44.6 12c.9.2 1.7.3 2.7.3 1.8 0 3.6-.4 5.6-1.3l45.7-20.4c2.2-.9 4-2.6 4.8-4.8 1-2.3 1-4.7 0-6.9zm-76.5-55h9.1V49.4c0-8.4 2.6-15.4 7.1-20.1s11-7.1 19.3-7.1c12.8 0 19.9 5.6 25.4 12.9l-10.8 8.6c-4.2-5.3-8-8.4-14.5-8.4-3.6 0-6.2 1.2-8.4 3.3-2.4 2.6-3.9 6.4-3.9 11.1v10.2h28.7v12H69.5v19.6h37.4v12.3H83.4c-1.1-1.6-2.8-2.9-4.8-3.4 0 0-23.2-5.5-28.3-6.7l5-1.5V71.9h-9.1v-12zm72 60c-.4.9-1.1 1.7-2.2 2.1l-45.8 20.4c-1.9.8-3.6 1.1-5 .7l-44.7-12c-1.2-.3-3.6-1.2-4.2-2.2-.5-1.1-1.4-7.2-2-12.3 1.2-4.3 3.5-5.8 5.8-7.1 2.6-1.5 16.4-9.7 17.3-10.2 1.9-1.1 5-2.1 7.7-1.7 2.4.6 32.1 7.7 32.1 7.7 1.8.5 2.7 2.3 2.8 3.9 0 .2-.1.5-.1.8v.3c-.2.7-.5 1.2-.9 1.6l-.2.2c-.8 1-2.1 1.4-3.5 1.1l-26.7-6.6c-1.1-.3-2.2.2-2.7 1.1-.6.9-.5 2.1.3 3l12.1 13.6c.3.4.8.6 1.3.8l17.8 4.4c.5.1 1.1.1 1.6-.1l33.7-14.6c.8-.3 1.8-.2 3.1.3 1 .4 1.8 1.1 2.2 2.1.5.7.5 1.7.2 2.7z"/></svg><svg viewBox="0 0 150 150" width="150" height="150" id="src-svg-top_nav-payback" x="2400" xmlns="http://www.w3.org/2000/svg"><path d="M87.5 22.1c1-.9 2.2-1.5 3.8-1.5 2.9 0 4.8 1.4 6.6 3.8l5-3.9c-2.5-3.4-5.7-5.9-11.5-5.9-3.8 0-6.7 1.1-8.8 3.2-2 2.1-3.2 5.3-3.2 9.1v4.8h-4.2v5.4h4.2v9.2l-4.2 1.3v4h27.6v-5.5h-17v-8.9h13v-5.4h-13v-4.6c0-2.2.5-3.9 1.7-5.1z"/><path d="M128.8 82.6c-3-9.7-9.1-17.5-16.8-23.2 6.8-6.3 11-15.3 11-25C123 15.7 107.9.5 89.3.5 70.6.5 55.4 15.7 55.4 34.3c0 5.3 1.2 10.4 3.4 14.9-2.8.7-5.6 1.7-8.4 2.9-6.2-9.2-17-11.2-17-11.2v22.5L16.2 79.9h-4.6c-4.8 0-6.2 2.2-6.2 5.8v22.7c0 3.9 2.2 7.4 6 7.4h4.7s9.6 11.5 15 18.1c1.4 1.7 2.2 3.3 2.2 6v9.1h24.6v-8.8c0-4.2 3.3-3.7 3.3-3.7h24.9s3-.2 3 3.1v9.3h24v-12.5s13-9.6 16.6-29.3c4.3-3 14.1-11.5 14.9-24.5h-15.8zm-89.4 1.8c-3.3 0-6-2.7-6-6s2.7-6 6-6 6 2.7 6 6c.1 3.3-2.7 6-6 6zM57 64.7l-2.8-6c2.8-1.3 5.7-2.3 8.7-3.1 1.6 2 3.5 3.8 5.6 5.4-3.9.7-7.8 1.9-11.5 3.7zm40.2-2.6C91.1 59.4 84.1 58 75.9 58c-1.1 0-2 0-3 .1-7.9-5.4-12.5-14.2-12.5-23.8 0-15.9 13-28.8 28.9-28.8 15.8 0 28.7 13 28.7 28.9 0 12.9-8.5 24.2-20.8 27.7z"/></svg><svg viewBox="0 0 150 150" width="150" height="150" id="src-svg-top_nav-phone-pre-owned" x="2550" xmlns="http://www.w3.org/2000/svg"><path d="M132.8 3.3H66c-6.5 0-12 5.3-12 12V34H43.5V23.2L1.4 46.6l42.1 23.5V59.3H54v75.3c0 6.6 5.5 12 12 12h66.9c6.6 0 12-5.5 12-12V15.3c-.1-6.6-5.4-12-12.1-12zM58.7 90V73.8h26.4v-7.6l28 15.7-28 15.6V90H58.7zM38.9 54.7v7.6l-28-15.7 28-15.6v7.6h26.3v16.1H38.9zm60.6 83.5c-4.6 0-8.4-3.8-8.4-8.4s3.8-8.4 8.4-8.4 8.4 3.8 8.4 8.4-3.8 8.4-8.4 8.4zm29.2-25.6H69.9v-18h10.6v10.7l42.1-23.4-42.1-23.5v10.8H69.9V20.1h58.8v92.5z"/></svg><svg viewBox="0 0 150 150" width="150" height="150" id="src-svg-top_nav-phone3" x="2700" xmlns="http://www.w3.org/2000/svg"><path d="M148.7 30.6c-.1-6.2-5.2-11.2-11.4-11.2H114c-1.4-4.1-5.3-7.1-9.8-7.1H45.7c-4.5 0-8.5 3-9.9 7.1H12.7c-6.3 0-11.4 5.1-11.4 11.4v87.8c0 6.3 5.1 11.4 11.4 11.4h22.9c1.3 4.3 5.4 7.6 10.1 7.6h58.4c4.7 0 8.8-3.3 10.1-7.7h23.1c6.3 0 11.4-5.1 11.4-11.4V30.6zm-34.1 80.6c.3-.1.7-.2 1.1-.2 2.1 0 3.8 1.7 3.8 3.7-.1 2.2-1.7 3.9-3.8 3.9-.4 0-.8-.1-1.1-.2v-7.2zm0-74.5h17.2v63.1h-17.2V36.7zm-79.4 81.8c-.3.1-.6.1-.9.1-2.1 0-3.8-1.7-3.8-3.8s1.7-3.8 3.8-3.8c.3 0 .6 0 .9.1v7.4zm0-18.8H18.1v-63h17.1v63zM6.3 118.6V30.8c0-3.5 2.9-6.4 6.4-6.4h22.5v7.3H15.6c-1.4 0-2.5 1.1-2.5 2.5v68c0 1.4 1.1 2.5 2.5 2.5h19.6v1.4c-.3 0-.6-.1-.9-.1-4.9 0-8.8 3.9-8.8 8.8s3.9 8.8 8.8 8.8c.3 0 .6 0 .9-.1v1.5H12.7c-3.5 0-6.4-2.9-6.4-6.4zm68.8 11.7c-4.1 0-7.4-3.4-7.4-7.4s3.4-7.4 7.4-7.4c4.1 0 7.4 3.4 7.4 7.4-.1 4-3.4 7.4-7.4 7.4zm-25.9-22.4V27.1h51.3v80.8H49.2zm94.5 10.6c0 3.5-2.9 6.4-6.4 6.4h-22.7v-1.4c.4 0 .7.1 1.1.1 4.8 0 8.7-3.8 8.8-8.8 0-4.9-3.9-8.8-8.8-8.8-.4 0-.7 0-1.1.1v-1.3h19.7c1.4 0 2.5-1.1 2.5-2.5V34.2c0-1.4-1.1-2.5-2.5-2.5h-19.7v-7.3h22.7c3.4 0 6.3 2.9 6.4 6.3v87.8z"/></svg><svg viewBox="0 0 150 150" width="150" height="150" id="src-svg-top_nav-sim" x="2850" xmlns="http://www.w3.org/2000/svg"><path d="M148.2 71.1c0-.2 0-.3-.1-.6v-.1c-.1-.2-.1-.4-.3-.7 0 0-.1-.1-.1-.2-.1-.1-.2-.3-.3-.4 0-.1-.1-.1-.1-.2-.1-.1-.3-.2-.4-.3l-.1-.1L123.4 55l1.9-6.5-17.6-33-34.8-9.9c-3-.8-6.1-.4-8.8 1.1-2.7 1.5-4.7 4-5.5 6.9l-8 27.8L3.3 68.3l-.1.1c-.1 0-.1.1-.1.1-.1.1-.3.2-.4.3-.1 0-.1.1-.1.2-.1.1-.2.3-.3.4l-.1.1c-.1.2-.2.4-.3.7v.1c0 .2-.1.4-.1.6v61.2c0 5.6 4.5 10.1 10.1 10.1h126.5c5.6 0 10.1-4.5 10.1-10.1v-61h-.3zM63.4 15c.4-1.7 1.5-3 3.1-3.9 1.6-.9 3.3-1.1 5-.6l32.8 9.3 15.6 29.4-10.3 36.6-8.7 4.4 6-21.9-47.4-13.5-10.1 35.5-6.5-3.3 20.5-72zM47.9 50.8l-9.6 33.7-26.2-13.4 35.8-20.3zm5.9 41.6L62.9 61l37.9 10.7L94.7 93l-19.8 10.1-21.1-10.7zm61.8-10l5.9-20.6 16.3 9.3-22.2 11.3z"/></svg><svg viewBox="0 0 150 150" width="150" height="150" id="src-svg-top_nav-sim-plans" x="3000" xmlns="http://www.w3.org/2000/svg"><path d="M148.8 47.5h-12.7c-1.2-11.1-10.6-19.8-22-19.8s-20.8 8.7-22 19.8h-2.6V35.6H72.4C72.2 20.8 60.2 9 45.4 9s-26.9 12-27 26.6H1.3v105.5h88.2v-11.4h59.3V47.5zM45.4 18.1c9.7 0 17.6 7.8 17.7 17.4H27.5c.3-9.6 8.2-17.4 17.9-17.4zM58 84.8v7.1H41.1v11.6h22.1v7.2H27.3v-5.3l5.4-1.6v-12h-5.4v-7.1h5.4v-6.2c0-5 1.5-9.1 4.2-11.9 2.6-2.7 6.5-4.2 11.4-4.2 7.6 0 11.7 3.3 15 7.6l-6.4 5.1c-2.5-3.2-4.7-5-8.6-5-2.1 0-3.6.7-5 1.9-1.4 1.6-2.3 3.8-2.3 6.7v6.1h17zm86.6 40.7H89.5V51.7h6.7v-2.1c.1-9.8 8.1-17.7 17.9-17.7s17.8 7.9 17.9 17.7v2.1h12.6v73.8zm-17.2-75.9c-.1-7.2-6.1-13.1-13.3-13.1-7.3 0-13.1 5.8-13.3 13.1l-.1 2.2h26.7v-2.2zm-22-2.1c1.1-3.9 4.5-6.7 8.7-6.7 4.2 0 7.7 2.9 8.8 6.7h-17.5zm5.9 33.9v4.5h12.5v.2h-.3v5.2H111v8.6h16.4v5.4h-26.5v-4l4-1.2v-8.8h-4v-5.2h4v-4.6c0-3.7 1.1-6.8 3.2-8.8 1.9-2 4.9-3.2 8.5-3.2 5.5 0 8.7 2.5 11.1 5.6l-4.7 3.7c-1.8-2.3-3.5-3.7-6.3-3.7-1.6 0-2.7.5-3.7 1.4-1 1.1-1.7 2.8-1.7 4.9z"/></svg><svg viewBox="0 0 150 150" width="150" height="150" id="src-svg-top_nav-spread-2" x="3150" xmlns="http://www.w3.org/2000/svg"><path d="M140.1 93.7l-21.6 19c-1.1.9-2.8.7-3.9-.5s-1.1-3 0-3.9L136 89.4c.8-.7.9-2 .2-2.8s-2-.9-2.8-.2l-10.5 9.2s-.1 0-.1.1l-21.6 19.1c-1.1.9-2.8.7-3.9-.5s-1.1-3 0-3.9l1.5-1.3 17.5-15.3 9.5-8.3L147 66.8l-13-13.4v-.2l-18-1.1-12 7.8c-.1 0-5 2.2-6.5 0-1.3-1.9-.3-3.3 2.3-6l.3-.3c1.6-1.6 12.7-10.3 18-14.5v.1l17.6.8c1 0 1.8-.7 1.8-1.7s-.7-1.8-1.7-1.9h-.4l-17-.8-15.5-16.9-30 27.8-29.5-26.7L21.3 43 4.9 44.1h-.1c-1 .2-1.8 1.1-1.6 2.2.1 1 1 1.6 1.9 1.6l12.3-.8L7.5 58 65 75.2c1.4.4 2.1 2 1.7 3.6-.4 1.6-1.9 2.5-3.3 2.1l-38-10.7c-1-.3-2.1.3-2.4 1.4-.3 1 .3 2.1 1.4 2.4L42 79l27 7.7c1.3.4 2 1.9 1.6 3.4-.2.8-.7 1.4-1.3 1.8-.6.4-1.2.5-1.9.3l-27.2-7.8v.1l-17.9-5.1c-1-.3-2.1.3-2.4 1.4-.3 1 .3 2.1 1.4 2.4L62.8 95c1.4.4 2.1 2 1.7 3.6-.2.8-.7 1.4-1.4 1.8-.6.4-1.3.5-1.9.3l-27.7-7.9h-.1L20 89c-1-.3-2.1.3-2.4 1.3-.3 1 .3 2.1 1.4 2.4l27.5 7.8c1.4.4 2.1 2 1.7 3.6-.2.8-.7 1.4-1.4 1.9-.6.4-1.3.5-1.9.3L17 98.4c-1-.3-2.1.3-2.4 1.3-.3 1 .3 2.1 1.4 2.4l27.7 7.9c.6.2 1.1.2 1.7.2 1.2 0 2.3-.3 3.3-1 .1-.1.2-.1.3-.2l24.3 22.2 19.6-17.1c.3 1 .8 1.9 1.5 2.7 1.4 1.6 3.4 2.4 5.3 2.4 1.5 0 3-.5 4.2-1.5l6.4-5.6c.1 1 .6 1.9 1.3 2.7 1.4 1.6 3.4 2.4 5.3 2.4 1.5 0 3-.5 4.2-1.5l21.6-19c.8-.7.9-2 .2-2.8-.7-.8-2-.9-2.8-.2z"/></svg><svg viewBox="0 0 150 150" width="150" height="150" id="src-svg-top_nav-tariffs" x="3300" xmlns="http://www.w3.org/2000/svg"><path d="M95.3 3.6v34.1h34z"/><path d="M90.3 42.7V3.6H33c-6.8 0-12.3 5.6-12.3 12.3v118.2c0 6.8 5.6 12.3 12.3 12.3h84c6.8 0 12.3-5.6 12.3-12.3V42.7h-39zM38.4 57.2l5.5-1.6V43.4h-5.5v-7.2h5.5v-6.4c0-5 1.5-9.2 4.2-12 2.7-2.7 6.6-4.2 11.5-4.2 7.6 0 12 3.4 15.3 7.8l-6.4 5.1c-2.5-3.2-4.8-5-8.7-5-2.2 0-3.8.7-5 1.9-1.5 1.5-2.4 3.8-2.4 6.7v6.2h17.2v7.2H52.5v11.8h22.4v7.4H38.4v-5.5zM94 132.6H32.4v-9.8H94v9.8zm23.3-22.7H32.4v-9.8h84.9v9.8zm0-22.7H32.4v-9.8h84.9v9.8z"/></svg><svg viewBox="0 0 150 150" width="150" height="150" id="src-svg-top_nav-topup-2" x="3450" xmlns="http://www.w3.org/2000/svg"><path d="M106.7 45.2c-5.8 0-11.3 1.2-16.3 3.3V35.2H73.1c-.2-15-12.3-26.9-27.3-26.9S18.7 20.4 18.6 35.2H1.4v106.6h89v-15.1c5 2.1 10.5 3.3 16.3 3.3 23.4 0 42.4-19 42.4-42.4s-19-42.4-42.4-42.4zM45.9 17.5c9.8 0 17.7 7.9 18 17.5h-36c.2-9.6 8.1-17.5 18-17.5zM64 111.1H27.6v-5.4l5.5-1.6V92h-5.5v-7.1h5.5v-6.3c0-5 1.5-9.2 4.2-12 2.6-2.7 6.6-4.2 11.5-4.2 7.7 0 11.9 3.4 15.1 7.7l-6.5 5.1c-2.5-3.1-4.8-5-8.7-5-2.2 0-3.7.7-5 1.9-1.4 1.6-2.3 3.9-2.3 6.7V85c0-.1 17.2-.1 17.2-.1V92h-17v11.8H64v7.3zm42.7 13.9c-20.6 0-37.4-16.8-37.4-37.4 0-20.6 16.8-37.4 37.4-37.4 20.6 0 37.4 16.8 37.4 37.4 0 20.6-16.8 37.4-37.4 37.4z"/><path d="M105.2 71.8c1.2-1.3 2.8-1.9 4.9-1.9 3.8 0 6.1 1.9 8.5 4.9l6.3-5c-3.2-4.3-7.4-7.6-14.9-7.6-4.8 0-8.7 1.5-11.3 4.2-2.7 2.8-4.2 6.9-4.2 11.8v6.2h-5.4v6.9h5.4v12.1l-5.4 1.6v5.2h35.4V103h-21.8V91.4h16.8v-7h-16.6v-6.1c0-2.8.9-5 2.3-6.5z"/></svg><svg viewBox="0 0 150 150" width="150" height="150" id="src-svg-top_nav-topup-balance" x="3600" xmlns="http://www.w3.org/2000/svg"><path d="M92.9 21.2c-14.8 0-28.3 6-38 15.7-4.7-1.9-9.8-3-15.2-3-22.2 0-40.2 18-40.2 40.2 0 22.2 18 40.2 40.2 40.2 4.9 0 9.6-.9 14-2.5 9.8 10.5 23.8 17 39.2 17 29.7 0 53.8-24.1 53.8-53.8s-24.1-53.8-53.8-53.8zM39.4 69.7h-4.1v-4.9c0-2.4.7-4.2 1.9-5.4 1-.9 2.3-1.5 4-1.5h.7c-1.3 3.8-2.1 7.7-2.5 11.8zm-.3 5.7c0 3.2.3 6.3.9 9.4h-4.7v-9.4h3.8zm.6 33.9c-19.4 0-35.2-15.8-35.2-35.2 0-19.4 15.8-35.2 35.2-35.2 4.1 0 8 .7 11.6 2-2.7 3.3-5.1 7-7 11-1-.2-2-.3-3.1-.3-4 0-7.1 1.2-9.3 3.4-2.2 2.2-3.4 5.6-3.4 9.6v5.1h-4.4v5.7h4.4v9.7l-4.4 1.3v4.3h17.3c1.9 6.2 4.9 11.9 8.7 17-3.2 1-6.7 1.6-10.4 1.6zm69.8-38.6v9.2h-22V95h28.7v9.5H69.5v-6.9l7-2.1V79.9h-7v-9.2h7v-8.1c0-6.5 1.9-11.9 5.5-15.4 3.4-3.5 8.5-5.5 14.8-5.5 9.8 0 15.3 4.3 19.5 9.9l-8.3 6.6c-3.2-4.1-6.2-6.5-11.1-6.5-2.7 0-4.8.9-6.5 2.5-1.9 2-3 4.9-3 8.6v7.9h22.1z"/></svg></svg>