<svg xmlns="http://www.w3.org/2000/svg" viewBox="0 0 445.7 139.78" fill="#FCC31E"><path d="M163.64 132.19a140.27 140.27 0 01-3-23.81l-1.23 2.16c4.7-3.36 9.67 6.57 12.77 9.07 2.36 1.91 5.44 3.51 8.55 2.81s4.79-3.46 5.43-6.47c1.1-5.15 1.34-10.64 2-15.86l-4.33 1.74a48.44 48.44 0 0112.49 20.67c.43 1.41 2.32 2.49 3.67 1.5a49.54 49.54 0 0011.93-12.28l-4.57-.59a52 52 0 013.18 19.77c-.1 3.22 4.9 3.22 5 0a55.94 55.94 0 00-3.36-21.1 2.54 2.54 0 00-4.57-.6 42.22 42.22 0 01-10.13 10.48l3.67 1.49a53.77 53.77 0 00-13.78-22.87c-1.68-1.67-4-.28-4.26 1.77-.44 3.49-.86 7-1.3 10.49-.17 1.34.11 4.13-.77 5.24-2.29 2.89-4.7.92-6.41-.65-3.92-3.57-6.14-9.11-11.91-10.27-5-1-7.24 1.79-7 6.33a141.81 141.81 0 003.09 22.29c.68 3.14 5.5 1.81 4.82-1.33zm36.87-53.78c5.61-2 9.66-7.71 8.12-13.79s-7.81-9.15-13.7-8.28l3.08 3.08c2.63-8 5.23-19.42-2.68-25.4-6.21-4.71-15.31-2.41-19.22 4l4.66 1.26c-.9-7.09-2.55-15.61-10.2-18.38-6.1-2.22-13.17 2.26-12.4 9l4.91-.67c-1.17-8.7-8.66-16.55-17.84-16.16-8.73.37-15.88 8.64-14.79 17.3.39 3.15 5.4 3.19 5 0-.84-6.65 4.62-13 11.55-12.22 6.38.68 10.45 6.45 11.25 12.41.38 2.76 5.23 2.14 4.92-.66-.78-6.85 7.6-4.36 9.93-.64 1.82 2.91 2.25 6.64 2.67 10 .3 2.33 3.27 3.57 4.66 1.27a8.1 8.1 0 0114.48 1c2.1 5.11-.1 11.57-1.72 16.51-.66 2 1.33 3.33 3.07 3.07 8-1.17 10.36 9.83 2.92 12.43-3 1-1.72 5.89 1.33 4.82zm114.67-57.05l.16-18.28c0-4.11-6.34-4.11-6.38 0l-.17 18.28c0 4.11 6.35 4.11 6.39 0zm-27.18.39L276.2 8.32c-2.7-3.09-7.2 1.44-4.49 4.51l11.8 13.42c2.72 3.09 7.22-1.44 4.51-4.51zm52.56 3.72l11.8-13.43c2.7-3.07-1.8-7.6-4.52-4.51L336 20.95c-2.7 3.08 1.8 7.61 4.52 4.52z"/><path class="doodles__squiggle" d="M69.37 21.46c-.26-4.69-7.6-4.21-11.37-1.4s-8.87 6.53-12.52 3.56c-2.09-1.71-3.07-5.37-5.77-5.22-4.11.22-2.42 8-6.11 9.84-3.21 1.8-9.12-11.47-11.21-10.3-.91 1-1.65 11-2.31 19-.18 2.24-1.09 5-3.32 5.3-4.37.66-6.19-11.88-8.41-9.1-2.96 3.69-2.56 8.23-5.85 10.87" fill="none" stroke="#fcc31e" stroke-linecap="round" stroke-miterlimit="10" stroke-width="5"/><path d="M424.59 61.45c7.33-10.81.74-27.09-12-29.8-3.14-.66-4.48 4.16-1.33 4.82 9.75 2.07 14.63 14.21 9 22.46-1.81 2.67 2.52 5.18 4.32 2.52zm15.57-1.16c8.47-16.27 1.54-37.9-15.16-45.79-2.9-1.37-5.44 2.94-2.53 4.31 14.16 6.69 20.66 24.94 13.37 39-1.48 2.85 2.83 5.38 4.32 2.52zM444 98.05l-14.07 10.37a7.64 7.64 0 00-2.77 2.91c-.7 1.66-.17 3.55.37 5.27l5.79 18.45-15.09-9.6c-2.39-1.52-4.88-3.14-6.29-5.61l-18.88 16.49a182 182 0 016.47-23.72c-7.07-4.57-14.26-9.27-19.51-15.85a84.76 84.76 0 0024.42 1.07"/><path d="M443 96.43c-4.17 3.07-8.35 6.12-12.51 9.22-2.17 1.62-4.6 3.05-5.34 5.83-.83 3.08.78 6.43 1.68 9.3l4.64 14.77 2.75-2.12-10.9-6.93c-3.41-2.17-7.49-4.17-9.81-7.61a1.92 1.92 0 00-2.95-.38l-18.82 16.5 3.13 1.82a194.73 194.73 0 016.47-23.72 1.92 1.92 0 00-.87-2.12c-7-4.52-13.77-9.12-19.12-15.55l-1.83 3.13a92.94 92.94 0 0024.92 1.16c2.39-.22 2.41-4 0-3.75a89.2 89.2 0 01-23.92-1 1.89 1.89 0 00-1.82 3.13c5.55 6.67 12.66 11.46 19.88 16.14l-.86-2.12a198.93 198.93 0 00-6.47 23.7 1.9 1.9 0 003.14 1.83l18.82-16.49-2.94-.38c2 3 4.76 4.87 7.81 6.82q7.11 4.54 14.25 9.06a1.89 1.89 0 002.75-2.12l-2.9-9.22c-.94-3-2.89-6.77-3.08-9.89-.42-6.63 11-12.22 15.79-15.77 1.93-1.42.06-4.67-1.89-3.24z"/><path d="M403.94 97.83a85.91 85.91 0 007.9-23.12 121.62 121.62 0 017.2 21.38L443 98.32"/><path d="M405.56 98.72a93.59 93.59 0 008.09-23.56l-3.43.45a128.63 128.63 0 017 20.93 1.92 1.92 0 001.81 1.37l23.97 2.28c2.4.23 2.39-3.52 0-3.75l-24-2.28 1.81 1.38a135.48 135.48 0 00-7.39-21.83c-.64-1.46-3.13-1-3.43.45a89.94 89.94 0 01-7.67 22.67c-1.08 2.15 2.16 4.05 3.24 1.89zM35.12 124.55s18.32-16.72 20.05-32.42c0 0 3.67-14.85-.87-20.53 0 0-6.06-6.91-13.95 4.64l-6.82 8.83s-4.46-13.36-9-17.26c0 0-12.23-11.07-15.08 8.34 0 0-.52 20.88 9.25 34.62 0 0 6.9 11.08 12.88 14.83a4.29 4.29 0 003.54-1.05z"/><path d="M78.76 39.83c-2.41 4.22-2.67 8.35-.31 12.47.69 1.21 1.62 1.71 3.14.53a30.2 30.2 0 0115.51-5.9c4.41-.49 9.63 2.1 11 5.53.78 2 0 3.58-2 5-3.38 2.45-7.5 3.39-11.64 3.89-4.89.6-9.18-1.24-12.94-3.7-1.06-.69-1.56-.45-1.93.25-2.73 5.18-4.1 10.38-.13 15.58a22.72 22.72 0 001.6 1.67c2.89 3.07 3.82 3.12 6-.17 3.88-5.72 12.76-7 18.93-5.82 2.92.56 4 3.14 2.36 5.4-2.89 4.07-8.83 7.89-15.59 6.38a20.71 20.71 0 00-4.93-.27c-.69 0-1.9.4-2 .74-.79 4.06-.72 8 2.84 11.33 1.77 1.65 3.41 3.4 5.06 5.14 3.82 4 3.6 6.69-.4 10.55a103.44 103.44 0 00-8 8.67c-4.06 5-2.69 8.35.59 12.56 1.71 2.2 4.36 4.13 4.13 7.08a6.37 6.37 0 01-1.45 2.64 11.09 11.09 0 01-1.5-.55c1.61-3.71-1.65-6.07-3.71-8.54-3.92-4.7-4.41-9.33-.48-14.25a91.69 91.69 0 018-8.67c3.71-3.6 3.54-6.34-.2-9.84a39.46 39.46 0 01-7.23-8.65c-1-1.75-.78-4.33-.17-6.35.73-2.42-.36-3.74-2.42-5a12.53 12.53 0 01-6-8.42c-1.09-4.37.17-8.31 2.61-12.18a2.83 2.83 0 00-.25-2.88c-3.47-4.19-3.93-8.69-1.67-13.21 1.55-3.1 4.07-5.87 5.94-8.87a3.6 3.6 0 00.36-3c-2.35-5.48-1-10.15 3.51-14.6 5.47-5.35 12.71-8.32 20.39-10.54a36.2 36.2 0 0111.7-.87c2.23.13 4.36 1.67 6.49 2.66.23.1.14.68.2 1-.49 0-1.11.18-1.45 0-1.94-1.05-3.79-2.23-6.32-2-2.84.26-5.78.2-8.5.83-7.55 1.72-14.52 4.53-19.82 9.48-2.92 2.72-5.44 5.79-5 9.77a17.94 17.94 0 00.74 3.61c.31 1 .93 1.3 2 .37a38 38 0 0115.64-7.63c5.91-1.5 16.13 2.78 17.54 7.69.68 2.37-.86 4.54-2.8 6.19a20.45 20.45 0 01-12.73 4.92c-4.45.18-9 .65-12.78-1.82-2.16-1.4-4.07-3.08-6.16-4.56A2.18 2.18 0 0083 33.4c-1.43 2.06-2.74 4.19-4.22 6.41m8.8-6.08c2.8 2.15 5.65 4.18 9.75 4.41 6.78.39 13-.49 17.57-5.21 2.2-2.32 2.21-5.08-.61-7.07a16.31 16.31 0 00-9.2-2.67c-7.6-.24-12.95 3.53-18.19 7.41-1.46 1.08-.92 2.06.68 3.13m-3.1 19.74c-.58.86-1.87 2.27-1.62 2.5a13.44 13.44 0 009.71 3.57c3.65-.27 7.27-1.67 10.7-3 3-1.11 3.22-3.91 1-5.84-2.44-2.08-5.64-1.94-8.57-1.65a25.21 25.21 0 00-11.17 4.38m5.31 25.29c5.81 1.56 12.24-.26 15.84-4.47 1.47-1.72.52-3.49-2-3.7a24.85 24.85 0 00-3 .09c-5.68.28-9.82 2.56-12.38 6.76-.24.28.57.92 1.47 1.36z" stroke="#fcc31e" stroke-miterlimit="10" stroke-width=".8"/><path d="M307.67 102.58c-3.53 1-6.83 2.23-10.22 2.56-6.73.67-7.45 1.7-7.45 9.26 0 4 1.13 8 1.58 12 .11 1-.14 2.58-.76 2.92a38 38 0 01-7.61 3.22c-.59.17-2.22-1.18-2.44-2.07a80 80 0 01-1.69-28.77c.54-4.83 4.5-5 7.6-6.14s6.69-1.57 10-2.57a3.71 3.71 0 002.31-2.3c.78-5.53 1.26-11.1 1.89-16.65.16-1.41.66-2.8.71-4.22.07-2.26 1.83-2.58 3.24-2.56 5.86.07 11.71.35 17.56.67 1.92.11 3.49.63 2.78 3.32-.61 2.3-.66 4.74-1.06 7.1-.33 2-1.23 3.38-3.62 2.48a21.94 21.94 0 00-2.69-.93c-5.47-1.21-5-.58-5.65 4.24a46.22 46.22 0 000 11.81c.48 3.73-1.42 5.22-4.44 6.66m1.8-5.68c-.12-3.79-.67-7.62-.28-11.36.88-8.56 3.1-10 9.61-8.53.71.17 2 .29 2.11.08a13.41 13.41 0 001.09-4.67c0-.55-1.66-1.48-2.58-1.52-4.05-.17-8.16.32-12.14-.18-3.35-.43-3.57 1.26-3.8 3.61-.55 5.66-1.24 11.3-1.74 17-.28 3.21-2.33 4.19-5.07 4.85-4.26 1-8.49 2.21-12.67 3.52a3.23 3.23 0 00-2 2.11c-.6 8.24-1.52 16.5 1.21 24.63.72 2.14 1.55 3 3.67 2.31s1.6-2.28 1.3-3.85c-1.07-5.58-1.79-11.15-.34-16.81.8-3.13 2.54-4.79 5.83-5.1a47.76 47.76 0 009.24-1.5c2.44-.78 5.67-.78 6.52-4.62z" stroke="#fcc31e" stroke-miterlimit="10" stroke-width=".29"/><path class="doodles__swirl" d="M247 43.65c-3 1.36-3.4 3.43-2.33 6.1a5.62 5.62 0 005.73 3.31c.55-.11 1.12-.15 1.68-.23-.41.69-.66 1.65-1.27 2-2.7 1.68-6.81 0-8.61-3.23-2.58-4.63-1.34-10.2 6.13-11.4a25.55 25.55 0 0110.18.58c9.09 2.35 10.37 9.62 8 17.42-2.05 6.7-12.81 10.69-19.17 9.18-4.11-1-7.93-2-11.49-4.34-4.23-2.77-6.14-6.83-7.16-11.49a21.94 21.94 0 015.11-19.81c3.74-4.3 8.34-8 14.62-7.59 1.89.12 3.74 1.3 5.55 2.14.43.2.6 1 .89 1.48-.63.18-1.53.72-1.85.49-4.65-3.44-8.55-1.08-12.44 1.48a19.52 19.52 0 00-8.79 13.55 19.8 19.8 0 001.62 12.37c2.94 6.1 8.27 8.25 14.36 9a24.65 24.65 0 007.73-.58c7.85-1.59 9.54-9.55 8.9-15.14-.33-2.83-5-6.29-8.67-6.32a55.85 55.85 0 00-8.72 1.03z" stroke="#fcc31e" stroke-miterlimit="10" stroke-width=".29"/><path d="M378.16 21.22a82.61 82.61 0 0122.52-11.07 57.52 57.52 0 017.55-1.79c.57-.1 1.31.8 2 1.25-.52.58-1 1.59-1.57 1.68a61 61 0 00-18.37 6.27c-4.09 2.07-8 4.39-12 6.77s-7.72 5.12-11.71 7.46c-2 1.16-3.56 2.78-2.43 4.66a7.62 7.62 0 005.09 3.12c4.05.46 8.19.09 12.3.18a10.37 10.37 0 012.72.83 8.5 8.5 0 01-1.26 2.51c-3.33 3.26-6.86 6.33-10.13 9.65-1.87 1.89-3.32 4.17-5.07 6.19-1.51 1.75-.64 2.27 1.1 2.34 2.05.07 4.12-.15 6.15.08 1.06.13 2.05 1 3.07 1.47a16.41 16.41 0 01-1.33 2.53q-3.63 4.68-7.41 9.25a7.4 7.4 0 01-1.68 1.23c-.33-.91-1.21-2.18-.89-2.69 1.61-2.56 3.52-4.93 5.36-7.35a9.57 9.57 0 011.06-1 5.15 5.15 0 00-1.45-.91c-.69-.16-1.5.15-2.14-.08-1.7-.59-4.17-.94-4.79-2.17a5.14 5.14 0 011.41-6c3.77-3.6 7.43-7.33 11.08-11.06a11.12 11.12 0 001.32-2.12 7.58 7.58 0 00-2.66-.14c-4 1.31-7.77.52-11.31-1.33-4.48-2.35-5.32-6.78-1.5-9.8 4.61-3.71 9.75-6.69 14.97-9.96z" stroke="#fcc31e" stroke-miterlimit="10" stroke-width=".29"/></svg>