<svg xmlns="http://www.w3.org/2000/svg" viewBox="0 0 24 24"><path d="M12.06 15.72a1.45 1.45 0 00-.83.65 2 2 0 00-.08.22 1.18 1.18 0 00.8 1.44h.2a1.23 1.23 0 001.29-1.16 1.16 1.16 0 00-.31-.89 1 1 0 00-1.07-.26zm-.36-1.93c.32.26 1.4.15 1.4-.52.09-1.1.22-5.55-.3-6.4a.21.21 0 00-.11-.06 1.25 1.25 0 00-.93 0c-.68.23-.55 2.27-.55 3 .04 1.15-.28 3.24.49 3.98z"/><path d="M12.18 1.72c-1.6.3-5.1 4.93-7.72 9.52-2.38 4.17-4.04 8.3-2.89 9.14.93 1.3 17.75 1.82 20.66-.17C24.6 18.6 15.46 1.72 12.18 1.72zm-.03 1.92c2.53 0 9.88 13.87 8 15.2-2.32 1.64-15.7 1.22-16.43.15-1.8-1.03 6.37-15.35 8.43-15.35zm-9.44 6.58c-2.18 8.17-1.09 4.08 0 0z"/></svg>