<svg xmlns="http://www.w3.org/2000/svg" viewBox="0 0 24 24"><path d="M12.32 6.57c-.1 0-.1-.1-.2-.1a1.14 1.14 0 00-1.4.8v.2a1.14 1.14 0 00.3.8.91.91 0 001 .3 1.56 1.56 0 00.8-.6 1 1 0 00-.5-1.4zM12.47 10.41c-.32-.27-1.4-.15-1.4.52-.09 1.1-.22 5.55.29 6.41a.21.21 0 00.12.05 1.25 1.25 0 00.93 0c.68-.23.55-2.27.55-3-.04-1.11.28-3.2-.49-3.98z"/><path d="M21.54 14.84a9.69 9.69 0 00-5.68-12.08l-.25-.08C11 .94 5 2.56 2.83 7.86s.34 11.49 5.1 13.28a10.49 10.49 0 0013.36-5.52c.07-.16.14-.33.2-.49a.61.61 0 00.05-.29zM8.9 20c-.15-.06-.29-.14-.44-.19-4-1.51-6.05-7.33-4.41-11.58s6.79-5.74 10.69-4.45c4.63 1.54 7 6 5.46 10.94v.08A8.89 8.89 0 018.9 20z"/></svg>