<?xml version="1.0" encoding="utf-8"?>
<svg id="_x33_G" style="enable-background:new 0 0 914 69.3;" x="0px" y="0px" viewBox="0 0 914 69" xmlns="http://www.w3.org/2000/svg" preserveAspectRatio="false">
  <style type="text/css">
	.st0{fill:transparent;}
	.st1{fill:url(#SVGID_1_);}
	.st2{fill:url(#SVGID_2_);}
	.st3{fill:url(#SVGID_3_);}
	.st4{fill:url(#SVGID_4_);}
</style>
  <rect y="0" class="st0" width="914" height="69.3"/>
  <g>
    <linearGradient id="SVGID_1_" gradientUnits="userSpaceOnUse" x1="774.3" y1="16.49" x2="880.8" y2="16.49" gradientTransform="matrix(1 0 0 -1 0 69.89)">
      <stop offset="0.0112" style="stop-color:#EB608F"/>
      <stop offset="1" style="stop-color:#AE0C20"/>
    </linearGradient>
    <rect x="774.3" y="44.6" class="st1" width="106.5" height="17.6"/>
    <linearGradient id="SVGID_2_" gradientUnits="userSpaceOnUse" x1="647.9" y1="37.69" x2="725.6" y2="37.69" gradientTransform="matrix(1 0 0 -1 0 69.89)">
      <stop offset="0.0117" style="stop-color:#00528B"/>
      <stop offset="1" style="stop-color:#36ADCE"/>
    </linearGradient>
    <rect x="647.9" y="28.6" class="st2" width="77.7" height="7.2"/>
    <linearGradient id="SVGID_3_" gradientUnits="userSpaceOnUse" x1="319.2" y1="44.89" x2="410.6" y2="44.89" gradientTransform="matrix(1 0 0 -1 0 69.89)">
      <stop offset="0.0049" style="stop-color:#73B62B"/>
      <stop offset="1" style="stop-color:#007349"/>
    </linearGradient>
    <rect x="319.2" y="21.4" class="st3" width="91.4" height="7.2"/>
    <linearGradient id="SVGID_4_" gradientUnits="userSpaceOnUse" x1="0" y1="17.99" x2="161.9" y2="17.99" gradientTransform="matrix(1 0 0 -1 0 69.89)">
      <stop offset="0.0115" style="stop-color:#EA5B25"/>
      <stop offset="1" style="stop-color:#FCC41E"/>
    </linearGradient>
    <polygon class="st4" points="161.9,41.6 0,41.6 0,47.6 4.6,47.6 4.6,62.2 93.7,62.2 93.7,47.6 161.9,47.6 &#9;"/>
    <g>
      <path d="M16.4,47.6l-5.9-6L16.4,47.6z"/>
      <polygon points="177.6,40.1 125,40.1 151.3,66.4 &#9;&#9;"/>
      <polygon points="593.6,35.8 579.3,21.3 579,21.3 579,28.1 586.6,35.8 &#9;&#9;"/>
      <polygon points="479.8,21.1 474.1,21.1 479.8,26.9 &#9;&#9;"/>
      <polygon points="784.4,35.9 774.3,35.9 779.3,40.9 &#9;&#9;"/>
      <path d="M54.4,35.4L40.9,21.8h3.6l11.6,11.8L54.4,35.4z M914,38.7v30.6h-0.3H0V38.7h11.6l8.9,9H24l-8.9-9h17l9.5,9.6l1.9-1.9&#10;&#9;&#9;&#9;l-5.9-6v-3.6l18.7,18.9h26.9L49.7,21.8h28.6l33.4,33.8h0.4V56l10.5,10.6h42.5L188.6,43v7.7l-15.7,15.9h13.9l16.6-16.7H218&#10;&#9;&#9;&#9;l-8.3,8.3h13.9l8.3-8.3h14.7l-8.3,8.3h0.5h13.6V48.1v-3.6l8-8.1h14.1l14.8-15h30.8V5.2l5.3-5.2v27.6l-5.3,5.3l-15,15.2h14.2&#10;&#9;&#9;&#9;l41.6-42v25.1l-16.6,16.9h6.6l8.2-8.3v-5.9H376l-14,14.2h8.2v6.5L403,21.4h21.2l-40.4,40.9h7.3l40.4-40.8l0.1-0.1h7l0.1,0.1&#10;&#9;&#9;&#9;L471.8,55h6.5L445,21.1h21.8l12.9,13v4.7h4.7l15.9,16h6.8l-15.9-16h7.6l15.9,16h7.3l-15.9-16h28.1l8,8.1h3.2L560.3,62v-4.5L550,47&#10;&#9;&#9;&#9;h4.1l9.5,9.6h3.4l-9.5-9.6h4.1l7.8,7.9h3.4L565,47h4.1l7.8,7.9h3.4l-7.8-7.9h10.9l-5.4-5.5h7.3l5.4,5.5h3.3l7.8,7.9h3.9&#10;&#9;&#9;&#9;l-13.5-13.6h7l13.5,13.6h6.9L579,13.8h24.7l40.7,41.1h14.8l-18.9-19.1h0.1l-16.5-16.5h28.2v16.5h30.8L697,50.1h14.3l-14.2-14.3&#10;&#9;&#9;&#9;h13.7L725,50.1h14.8l-14.2-14.3h13.7l14.2,14.3h14.6l-14.2-14.3h6.7l14.2,14.3h23.4l14.2-14.3h28.7l-14.2,14.3H855l14.2-14.3h28.7&#10;&#9;&#9;&#9;l-3,2.9H914z M10.5,47.6h5.9l-5.9-6V47.6z M441.9,62.2l-6.8-6.8l-6.8,6.8H441.9z M456.9,62.2l-21.6-21.8l-22,21.8h7.7l14.1-14.1&#10;&#9;&#9;&#9;l14,14.1C449.1,62.2,456.9,62.2,456.9,62.2z M464.6,54.9l-29.5-29.8l-36.7,37.1h7.7l29-29.3l23,23.3v-1.3H464.6z M52.7,37.1&#10;&#9;&#9;&#9;L37.5,21.8v3.6l13.3,13.4L52.7,37.1z M48.9,40.8L37.5,29.3v3.6l9.6,9.7L48.9,40.8z"/>
    </g>
  </g>
</svg>
