<?xml version="1.0" encoding="UTF-8"?>
<svg width="258.48mm" height="150.21mm" version="1.1" viewBox="0 0 258.48 150.21" xmlns="http://www.w3.org/2000/svg">
 <defs>
  <marker id="arrowhead" markerHeight="7" markerWidth="10" orient="auto" refY="3.5">
   <polygon points="0 0 10 3.5 0 7" fill="#d40000"/>
  </marker>
 </defs>
 <path d="m79.737 79.627v1.9275h3.3926v68.241h0.89193v-68.241h3.3931v-1.9275z" fill="#4d4d4d"/>
 <rect x="3.8486" y="43.067" width="2.8835" height="106.69" fill="#999" stroke-dashoffset="20" stroke-linecap="round" stroke-width=".6"/>
 <rect x="2.0465" y="19.908" width="6.4879" height="23.428" fill="#999" stroke-dashoffset="20" stroke-linecap="round" stroke-width=".6"/>
 <g transform="matrix(.70109 0 0 .70109 95.495 -24.809)">
  <rect x="77.584" y="35.385" width="79.296" height="114.56" fill="#ccc"/>
  <g fill="#fff">
   <g transform="translate(0,-34.925)">
    <rect x="108.93" y="82.18" width="17.661" height="27.033"/>
    <rect x="133.8" y="82.18" width="17.661" height="27.033"/>
    <rect x="84.06" y="82.18" width="17.661" height="27.033"/>
   </g>
   <g transform="translate(0,-1.0131)">
    <rect x="108.93" y="82.18" width="17.661" height="27.033"/>
    <rect x="133.8" y="82.18" width="17.661" height="27.033"/>
    <rect x="84.06" y="82.18" width="17.661" height="27.033"/>
   </g>
   <g transform="translate(0,32.899)">
    <rect x="108.93" y="82.18" width="17.661" height="27.033"/>
    <rect x="133.8" y="82.18" width="17.661" height="27.033"/>
    <rect x="84.06" y="82.18" width="17.661" height="27.033"/>
   </g>
  </g>
 </g>
 <g transform="translate(-2.7293 -70.922)">
  <rect x="27.35" y="167.09" width="39.735" height="53.643" fill="#ccc"/>
  <g transform="translate(.4178 .032656)" fill="#fff">
   <rect x="49.327" y="172.52" width="12.382" height="18.953"/>
   <rect x="31.89" y="172.52" width="12.382" height="18.953"/>
   <rect x="49.327" y="196.29" width="12.382" height="18.953"/>
   <rect x="31.89" y="196.29" width="12.382" height="18.953"/>
  </g>
 </g>
 <path d="m0.24431 149.76h258.48" fill="none" stroke="#000" stroke-width=".89974"/>
 <path d="m250.94 129.66h-12.476v-17.466h12.476m0-4.9904h-12.476c-1.3848 0-2.4952 1.1104-2.4952 2.4952v22.457a2.4952 2.4952 0 0 0 2.4952 2.4952h12.476a2.4952 2.4952 0 0 0 2.4952-2.4952v-22.457c0-1.3848-1.1228-2.4952-2.4952-2.4952z" stroke-width="1.2476"/>
 <path d="m6.7772 31.527 218.95 78.749" fill="#d40000" marker-end="url(#arrowhead)" stroke="#d40000"/>
 <g transform="translate(-1.8733 -71.553)" fill="none" stroke="#d40000">
  <path d="m8.6505 103.08 160.03 13.697 61.672 55.175" marker-end="url(#arrowhead)"/>
  <path d="m8.6505 103.08 57.578 64.64 161.28 27.085" marker-end="url(#arrowhead)"/>
  <path d="m85.479 151.03 3.3296-8.8074" marker-end="url(#arrowhead)" stroke-width=".59599"/>
  <path d="m8.6505 103.08 76.828 47.949" stroke-linecap="round"/>
  <path d="m85.479 151.03 7.3574-6.0954" marker-end="url(#arrowhead)" stroke-width=".59599"/>
  <path d="m85.479 151.03 9.4653-1.9065" marker-end="url(#arrowhead)" stroke-width=".59599"/>
  <path d="m8.6505 103.08 156.61 118.04 61.42-17.057" marker-end="url(#arrowhead)"/>
 </g>
 <g fill="#000000" font-size="10.583px" stroke-width=".26458">
  <g font-family="Arial" font-weight="bold">
   <text x="172.37355" y="145.73842" text-align="center" text-anchor="middle" style="line-height:1.25" xml:space="preserve">         <tspan x="172.37355" y="145.73842" font-family="Arial" font-weight="bold" stroke-width=".26458" text-align="center" text-anchor="middle">5</tspan>      </text>
   <text x="95.692329" y="84.808517" style="line-height:1.25" xml:space="preserve">           <tspan x="95.692329" y="84.808517" font-family="Arial" font-weight="bold" stroke-width=".26458">4</tspan>        </text>
   <text x="138.10286" y="91.434692" style="line-height:1.25" xml:space="preserve">           <tspan x="138.10286" y="91.434692" font-family="Arial" font-weight="bold" stroke-width=".26458">1</tspan>        </text>
   <text x="160.65594" y="55.7449" style="line-height:1.25" xml:space="preserve">           <tspan x="160.65594" y="55.7449" font-family="Arial" font-weight="bold" stroke-width=".26458">2</tspan>        </text>
  </g>
  <text x="59.397453" y="101.62881" font-family="sans-serif" style="line-height:1.25" xml:space="preserve">           <tspan x="59.397453" y="101.62881" stroke-width=".26458"/>        </text>
  <text x="58.113289" y="106.87821" font-family="Arial" font-weight="bold" style="line-height:1.25" xml:space="preserve">           <tspan x="58.113289" y="106.87821" font-family="Arial" font-weight="bold" stroke-width=".26458">3</tspan>        </text>
 </g>
</svg>
