<?xml version="1.0" encoding="UTF-8" standalone="no"?>
<!-- Created with Inkscape (http://www.inkscape.org/) -->

<svg
   width="67.417801mm"
   height="14.314797mm"
   viewBox="0 0 67.417801 14.314797"
   version="1.1"
   id="svg5"
   inkscape:version="1.1 (c68e22c387, 2021-05-23)"
   sodipodi:docname="squiggle1.inline.inkscape.svg"
   xmlns:inkscape="http://www.inkscape.org/namespaces/inkscape"
   xmlns:sodipodi="http://sodipodi.sourceforge.net/DTD/sodipodi-0.dtd"
   xmlns="http://www.w3.org/2000/svg"
   xmlns:svg="http://www.w3.org/2000/svg">
  <sodipodi:namedview
     id="namedview7"
     pagecolor="#ffffff"
     bordercolor="#666666"
     borderopacity="1.0"
     inkscape:pageshadow="2"
     inkscape:pageopacity="0.0"
     inkscape:pagecheckerboard="0"
     inkscape:document-units="mm"
     showgrid="false"
     fit-margin-top="0"
     fit-margin-left="0"
     fit-margin-right="0"
     fit-margin-bottom="0"
     inkscape:zoom="0.57281113"
     inkscape:cx="-215.60335"
     inkscape:cy="257.50198"
     inkscape:window-width="1920"
     inkscape:window-height="1009"
     inkscape:window-x="-8"
     inkscape:window-y="-8"
     inkscape:window-maximized="1"
     inkscape:current-layer="layer1" />
  <defs
     id="defs2">
    <inkscape:path-effect
       effect="bspline"
       id="path-effect3368"
       is_visible="true"
       lpeversion="1"
       weight="33.333333"
       steps="2"
       helper_size="0"
       apply_no_weight="true"
       apply_with_weight="true"
       only_selected="false" />
    <inkscape:path-effect
       effect="bspline"
       id="path-effect3331"
       is_visible="true"
       lpeversion="1"
       weight="33.333333"
       steps="2"
       helper_size="0"
       apply_no_weight="true"
       apply_with_weight="true"
       only_selected="false" />
  </defs>
  <g
     inkscape:label="Layer 1"
     inkscape:groupmode="layer"
     id="layer1"
     transform="translate(-15.927875,-99.567742)">
    <path
       style="fill:none;stroke:#000000;stroke-width:2;stroke-linecap:round;stroke-linejoin:miter;stroke-miterlimit:4;stroke-dasharray:none;stroke-opacity:1"
       d="m 16.927875,109.5685 c 2.219511,-0.35381 4.438778,-0.70759 6.06394,-1.48504 1.625162,-0.77745 2.656353,-1.97855 4.194582,-0.82974 1.538229,1.1488 3.583123,4.64688 5.219113,3.79109 1.63599,-0.85579 2.862632,-6.0649 4.228662,-8.47254 1.366031,-2.40765 2.870839,-2.01318 3.678564,-0.14206 0.807725,1.87112 0.918494,5.21828 1.407113,7.21391 0.48862,1.99564 1.354761,2.63952 2.16894,1.12241 0.81418,-1.51711 1.576672,-5.19502 2.510322,-6.2565 0.93365,-1.06148 2.038171,0.49341 2.992931,2.61101 0.954759,2.1176 1.759775,4.79765 2.754521,5.53998 0.994746,0.74234 2.179206,-0.45279 3.043985,-2.25124 0.864779,-1.79845 1.409761,-4.20005 2.153174,-6.21322 0.743414,-2.01316 1.685149,-3.6375 2.663172,-3.62877 0.978023,0.009 1.991823,1.65025 3.138924,3.38782 1.147101,1.73757 2.427363,3.57101 3.3921,3.19394 0.964738,-0.37707 1.614156,-2.96448 3.364737,-3.27194 1.750582,-0.30746 4.60193,1.66501 6.859228,2.40459 2.257298,0.73958 3.92059,0.24646 5.58379,-0.24663"
       id="path3366"
       inkscape:path-effect="#path-effect3368"
       inkscape:original-d="m 16.927875,109.5685 c 2.219556,-0.35353 4.438824,-0.7073 6.657863,-1.06133 1.031514,-1.20092 2.062705,-2.40202 3.093624,-3.60336 2.045382,3.49864 4.090272,6.99672 6.135278,10.49525 1.227182,-5.20996 2.45383,-10.41907 3.680325,-15.629028 1.505196,0.394748 3.010005,0.789218 4.514707,1.183498 0.111082,3.34779 0.221837,6.69495 0.332325,10.04209 0.866454,0.64416 1.732594,1.28805 2.59848,1.93171 0.762812,-3.67784 1.525305,-7.35575 2.287531,-11.03399 1.104829,1.55516 2.209348,3.11005 3.313632,4.66476 0.805353,2.68048 1.610378,5.36053 2.415137,8.04046 1.184808,-1.19493 2.369268,-2.39006 3.553557,-3.58557 0.545324,-2.40158 1.090302,-4.80319 1.635027,-7.20518 0.942098,-1.62422 1.883831,-3.24856 2.825411,-4.873372 1.01424,1.642022 2.028046,3.283542 3.041656,4.924982 1.280578,1.8337 2.560832,3.66714 3.840834,5.50037 0.64972,-2.58723 1.299136,-5.17464 1.948283,-7.76234 2.851645,1.97277 5.702983,3.94525 8.554181,5.91749 1.663542,-0.49287 3.32683,-0.986 4.989947,-1.47937"
       sodipodi:nodetypes="ccccccccccccccccccc" />
  </g>
</svg>
