<?xml version="1.0" encoding="utf-8"?>
<!-- Generator: Adobe Illustrator 18.1.1, SVG Export Plug-In . SVG Version: 6.00 Build 0)  -->
<svg version="1.1" id="Layer_1" xmlns="http://www.w3.org/2000/svg" xmlns:xlink="http://www.w3.org/1999/xlink" x="0px" y="0px"
	 viewBox="-329.5 610.9 889.1 282.2" enable-background="new -329.5 610.9 889.1 282.2" xml:space="preserve">
<g>
	<g>
		<path fill="#FFFFFF" d="M333.9,716.9h-4.5v-20.8H326v-4.5h3.5v-8.4h4.5v8.4h4v4.5h-4V716.9z"/>
		<path fill="#FFFFFF" d="M358.6,716.9v-13.4c0-2,0-7.9-5.9-7.9c-4,0-6.4,3-6.4,7.9v13.4h-4.5v-33.2h4.5v10.9l0,0
			c2.5-3.5,5.9-3.5,6.9-3.5c4,0,6.9,1.5,8.9,4.5c1,1.5,1.5,3.5,1.5,6.4v14.9L358.6,716.9L358.6,716.9z"/>
		<path fill="#FFFFFF" d="M372.5,706.5c1,5,5,6.9,7.9,6.9c3.5,0,5.9-2,6.9-4h4.5c-2.5,6.4-7.9,8.4-11.9,8.4
			c-6.9,0-12.9-5.9-12.9-12.9c0-7.4,5.9-12.9,12.9-12.9c6.9,0,12.4,5.4,12.9,12.9c0,1,0,2,0,2.5
			C393.3,706.5,372.5,706.5,372.5,706.5z M388.3,702.5c0-3.5-3.5-7.4-7.9-7.4c-4.5,0-7.9,3.5-7.9,7.4H388.3z"/>
		<path fill="#FFFFFF" d="M443.3,716.9V703c0-2-0.5-7.4-5.9-7.4c-5.9,0-5.9,5.4-5.9,7.4v13.9H427V703c0-2,0-3.5-1-5
			c-1-2-3-2.5-4.5-2.5c-5.9,0-5.9,5.4-5.9,7.4v13.9h-4.5v-24.8h4.5v2.5l0,0c1-1,2.5-3.5,6.9-3.5c3,0,6.4,1.5,7.9,4
			c1-1.5,2.5-4,8.4-4c4,0,6.9,1.5,8.9,4.5c1,1.5,1.5,3.5,1.5,5.9v14.9L443.3,716.9L443.3,716.9z"/>
		<path fill="#FFFFFF" d="M466.1,717.3c-8.4,0-13.4-6.9-13.4-13.4c0-6.9,5.4-12.9,13.4-12.9c7.4,0,13.4,5.9,13.4,12.9
			C479.4,710.4,474.5,717.3,466.1,717.3z M466.1,695.6c-5.4,0-8.9,4.5-8.9,8.9s3.5,8.9,8.9,8.9c5,0,8.9-4,8.9-8.9
			C474.5,699.5,471,695.6,466.1,695.6z"/>
		<path fill="#FFFFFF" d="M483.9,716.9v-33.2h4.5v11.9l0,0c2-3,5-4,8.4-4c6.4,0,12.9,5.4,12.9,12.9c0,6.9-5.4,12.9-12.9,12.9
			c-2.5,0-5.9-1-8.4-4.5l0,0v3.5L483.9,716.9L483.9,716.9z M496.8,712.9c4.5,0,8.4-4,8.4-8.9c0-4.5-3.5-8.9-8.4-8.9
			s-8.4,4.5-8.4,8.9C488.3,709.9,492.8,712.9,496.8,712.9z"/>
		<path fill="#FFFFFF" d="M519.5,689.1h-4.5v-5.4h4.5V689.1z M519.5,716.9h-4.5v-24.8h4.5V716.9z"/>
		<path fill="#FFFFFF" d="M529.9,716.9h-4.5v-33.2h4.5V716.9z"/>
		<path fill="#FFFFFF" d="M539.3,706.5c1,5,5,6.9,7.9,6.9c3.5,0,5.9-2,6.9-4h4.5c-2.5,6.4-7.9,8.4-11.9,8.4
			c-6.9,0-12.9-5.9-12.9-12.9c0-7.4,5.9-12.9,12.9-12.9c6.9,0,12.4,5.4,12.9,12.9c0,1,0,2,0,2.5
			C560.1,706.5,539.3,706.5,539.3,706.5z M555.7,702.5c0-3.5-3.5-7.4-7.9-7.4s-7.9,3.5-7.9,7.4H555.7z"/>
		<path fill="#FFFFFF" d="M346.3,766.4V753c0-2,0-7.9-5.9-7.9c-4,0-6.4,3-6.4,7.9v13.4h-4.5v-24.8h4.5v2.5l0,0
			c2.5-3.5,6.4-3.5,7.4-3.5c4,0,6.9,1.5,8.9,4.5c1,1.5,1.5,3.5,1.5,6.4v14.9C350.7,766.4,346.3,766.4,346.3,766.4z"/>
		<path fill="#FFFFFF" d="M361.6,756c1,5,5,6.9,7.9,6.9c3.5,0,5.9-2,6.9-4h4.5c-2.5,6.4-7.9,8.4-11.9,8.4c-6.9,0-12.9-5.9-12.9-12.9
			c0-7.4,5.9-12.9,12.9-12.9c6.9,0,12.4,5.4,12.9,12.9c0,1,0,2,0,2.5C381.9,756,361.6,756,361.6,756z M377.4,752.5
			c0-3.5-3.5-7.4-7.9-7.4c-4.5,0-7.9,3.5-7.9,7.4H377.4z"/>
		<path fill="#FFFFFF" d="M393.3,766.4h-4.5v-20.8h-3.5v-4.5h3.5v-8.4h4.5v8.4h4v4.5h-4V766.4z"/>
		<path fill="#FFFFFF" d="M425,766.4h-2.5l-5.4-16.8l0,0l-5.4,16.8h-2.5l-9.4-24.8h5l5.4,16.3l0,0l5-16.3h3l5,16.3l0,0l5.4-16.3h5
			L425,766.4z"/>
		<path fill="#FFFFFF" d="M449.7,766.9c-8.4,0-13.4-6.9-13.4-13.4c0-6.9,5.4-12.9,13.4-12.9c7.4,0,13.4,5.9,13.4,12.9
			C463.1,759.9,458.1,766.9,449.7,766.9z M449.7,745.1c-5.4,0-8.9,4.5-8.9,8.9c0,4.5,3.5,8.9,8.9,8.9c5,0,8.9-4,8.9-8.9
			C458.6,749.5,454.7,745.1,449.7,745.1z"/>
		<path fill="#FFFFFF" d="M469,766.4v-24.8h4.5v2.5l0,0c2-3,5-3,6.4-3v5c-0.5,0-2.5,0.5-3.5,1c-1.5,1-3,2.5-3,6.4v13.4
			C474,766.4,469,766.4,469,766.4z"/>
		<path fill="#FFFFFF" d="M505.2,741.6l-8.9,11.9l10.4,13.4h-5.9l-9.9-12.9l0,0v12.9h-4.5v-33.2h4.5V754l0,0l8.9-11.9L505.2,741.6
			L505.2,741.6z"/>
		<path fill="#FFFFFF" d="M328.4,816.4v-24.8h4.5v2.5l0,0c2-3,5-3,6.4-3v5c-0.5,0-2.5,0.5-3.5,1c-1.5,1-3,2.5-3,6.4v13.4
			C332.9,816.4,328.4,816.4,328.4,816.4z"/>
		<path fill="#FFFFFF" d="M348.2,791.6V805c0,5.9,3,7.9,5.9,7.9c4,0,6.4-2.5,6.4-7.9v-13.4h4.5v24.8h-4.5v-2.5l0,0
			c-1.5,2-4,3.5-7.4,3.5c-3,0-5.4-1-6.9-2.5c-2-2-3.5-4.5-3.5-9.4v-13.4h5.4V791.6z"/>
		<path fill="#FFFFFF" d="M388.8,816.4V803c0-2,0-7.9-5.9-7.9c-4,0-6.4,3-6.4,7.9v13.4H372v-24.8h4.5v2.5l0,0
			c2.5-3.5,6.4-3.5,7.4-3.5c4,0,6.9,1.5,8.9,4.5c1,1.5,1.5,3.5,1.5,6.4v14.9L388.8,816.4L388.8,816.4z"/>
		<path fill="#FFFFFF" d="M412.1,816.4v-33.2h4.5v11.9l0,0c2-3,5-4,8.4-4c6.4,0,12.9,5.4,12.9,12.9c0,6.9-5.4,12.9-12.9,12.9
			c-2.5,0-5.9-1-8.4-4.5l0,0v3.5L412.1,816.4L412.1,816.4z M425,812.4c4.5,0,8.4-4,8.4-8.9c0-4.5-3.5-8.9-8.4-8.9
			c-5,0-8.4,4.5-8.4,8.9C416.6,809.4,420.5,812.4,425,812.4z"/>
		<path fill="#FFFFFF" d="M450.2,824.3h-5l3.5-8.9l-9.9-24.3h5l7.4,19.3l7.4-19.3h5L450.2,824.3z"/>
		<path fill="#FFFFFF" d="M488.3,824.3h-5l3.5-8.9l-9.9-24.3h5l7.4,19.3l7.4-19.3h5L488.3,824.3z"/>
		<path fill="#FFFFFF" d="M516.6,816.9c-8.4,0-13.4-6.9-13.4-13.4c0-6.9,5.4-12.9,13.4-12.9c7.4,0,13.4,5.9,13.4,12.9
			C529.9,809.9,525,816.9,516.6,816.9z M516.6,795.1c-5.4,0-8.9,4.5-8.9,8.9c0,4.5,3.5,8.9,8.9,8.9c5,0,8.9-4,8.9-8.9
			C525,799.5,521.5,795.1,516.6,795.1z"/>
		<path fill="#FFFFFF" d="M539.3,791.6V805c0,5.9,3,7.9,5.9,7.9c4,0,6.4-2.5,6.4-7.9v-13.4h4.5v24.8h-4.5v-2.5l0,0
			c-1.5,2-4,3.5-7.4,3.5c-3,0-5.4-1-6.9-2.5c-2-2-3.5-4.5-3.5-9.4v-13.4h5.4V791.6z"/>
	</g>
</g>
<g>
	<g>
		<g>
			<g>
				<path fill="#FFFFFF" d="M220.5,671.3c-2-0.5-5-0.5-7.4-0.5c-9.4,0-17.3,2-23.8,5.9c-8.9,5.9-13.9,15.3-13.9,28.2v2.5h-30.2V706
					c0-10.4,5.9-15.3,17.8-15.3l4.5,0.5v-19.3c-2-0.5-4.5-0.5-7.9-0.5c-9.4,0-16.8,2-23.3,5.9c-9.4,5.9-13.9,14.9-13.9,28.2v73.8
					h-15.3c-2.5,0-4-1.5-4-4v-34.2c0-24.3-12.9-36.6-39.6-36.6c-7.9,0-14.4,1-20.3,3.5c-8.4,3-13.4,7.9-13.4,15.3v9.4h20.8v-5
					c0-2,1.5-4,4.5-5c2-1,4.5-1.5,7.4-1.5c5.9,0,10.4,1.5,12.9,4c2.5,2.5,4,7.4,4,13.9v0.5h-3c-12.9,0-23.8,1.5-32.7,5
					c-14.4,5-21.3,13.9-21.3,25.7c0,8.9,3,15.8,9.4,20.8c5.9,5,13.4,7.4,21.8,7.4c8.4,0,15.3-2.5,21.3-7.9c2.5-2.5,5-5.4,5.9-8.4
					h0.5l-0.5,4c0,3,1,5.4,2.5,7.4c2,2,5,3,8.9,3h51v-72.8h30.2v72.8h22.3v-72.8h20.3v-18.3h-20.3V704c0-10.4,5.9-15.3,17.8-15.3
					l5,0.5L220.5,671.3L220.5,671.3z M77.4,756.5h4v2.5c0,5.4-2,11.4-5.9,15.8c-4,5-8.9,7.9-14.9,7.9c-4.5,0-7.9-1-10.4-3.5
					c-2-2.5-3.5-5.4-3.5-8.4C47.2,761.4,57.1,756.5,77.4,756.5"/>
				<path fill="#FFFFFF" d="M-9.2,715.4v2.5h-0.5c-1-2-3.5-4.5-6.4-6.4c-5.9-4.5-12.9-6.9-21.8-6.9c-12.9,0-22.8,4.5-30.2,13.4
					c-6.9,7.9-10.4,19.3-10.4,32.2c0,13.4,3.5,23.8,10.9,32.2c7.4,8.9,17.8,13.4,30.2,13.4c11.4,0,19.8-4,25.7-11.4l0,0v9.4
					c0,7.4-2.5,13.4-7.4,17.3c-4.5,3.5-10.4,5-17.8,5c-5.9,0-11.9-1-18.3-3.5l-7.4-3l-6.9,17.8c9.9,5,20.3,7.9,32.2,7.9
					c13.4,0,24.3-3.5,33.2-9.9c9.9-7.4,15.3-18.3,15.3-33.2v-62.4c0-2.5,1.5-4,4-4H22v-19.3H0.7c-3.5,0-5.4,1-7.4,2.5
					C-8.2,711.4-9.2,713.4-9.2,715.4 M-49.8,731.2c4-4.5,8.9-6.4,15.8-6.4c15.3,0,22.8,8.9,22.8,26.2c0,9.4-2,16.3-6.4,20.8
					c-4,4-8.9,5.4-14.9,5.4c-7.4,0-12.9-3-16.8-7.9s-5.9-11.9-5.9-19.8C-55.2,741.6-53.2,735.7-49.8,731.2"/>
				<path fill="#FFFFFF" d="M-81,724.8V707h-19.8v-1.5c0-10.4,5.4-15.3,17.3-15.3l4.5,0.5v-19.3c-2-0.5-4.5-0.5-7.4-0.5
					c-9.4,0-17.3,2-23.8,5.4c-8.9,5.9-13.9,15.3-13.9,28.2v2.5h-30.2v-1.5c0-10.4,5.4-15.3,17.8-15.3l5,0.5v-19.3
					c-2-0.5-5-0.5-7.9-0.5c-9.4,0-16.8,2-23.3,5.4c-9.4,5.9-13.9,15.3-13.9,28.2v74.3h-16.8c-2.5,0-4-1-4-4v-55.9c0-4.5-1-7.4-3-9.4
					c-2-1.5-4.5-2.5-8.9-2.5h-42.1c-3.5,0-5.9,1-7.4,2.5c-1.5,1.5-2,3.5-2,5.9c-0.5,1-0.5,1.5,0,2h-0.5c-1.5-2-3.5-4.5-5.9-6.4
					c-5.9-4-12.9-6.4-21.8-6.4c-12.9,0-22.8,4.5-30.2,13.4c-6.9,7.9-9.9,18.8-10.4,31.7c0.5,12.9,4,23.8,10.9,32.7
					c7.4,8.9,17.3,13.4,30.2,13.4c11.4,0,19.8-4,25.2-11.4l0,0v8.9c0,7.9-2.5,13.4-7.4,17.3c-4.5,3.5-10.4,5-18.3,5
					c-5.9,0-11.9-1-17.8-3l-7.4-3l-6.9,17.8c9.9,5,20.8,7.9,32.2,7.9c13.4,0,23.8-3.5,32.7-9.9c9.9-7.4,15.3-18.8,15.3-33.2v-62.4
					c0-2,1.5-3.5,4-3.5h13.4c2.5,0,4,1,4,4v55.4c0,4.5,1,7.4,3,8.9c1.5,2,4.5,3,8.9,3h54v-72.8h30.2V798h22.8v-73.3H-81z
					 M-300.8,731.2c4-4.5,8.9-6.9,16.3-6.9c15.3,0,22.8,8.9,22.8,26.2c0,9.4-2,16.8-6.9,21.3c-3.5,3.5-8.4,5.4-14.9,5.4
					c-6.9,0-12.9-3-16.8-7.9s-5.9-11.9-5.9-19.8S-304.7,735.7-300.8,731.2"/>
				<rect x="-219.6" y="670.8" fill="#FFFFFF" width="22.8" height="22.8"/>
			</g>
		</g>
	</g>
</g>
<g>
	<rect x="270.5" y="610.9" fill="#FFFFFF" width="5" height="282.2"/>
</g>
</svg>
