<svg xmlns="http://www.w3.org/2000/svg" viewBox="0 0 24 24"><path d="M13.2 3.1c-.1 0-.1 0-.2-.1h-1.9c-4.6.5-8.1 4.3-8.2 9 0 4.5 3.4 8.4 7.9 9H13c.2 0 .5-.1.7-.2h.2c4-1.1 6.9-4.6 7-8.8 0-4.4-3.3-8.2-7.7-8.9zm-1.8 1.3V8H9c.6-1.3 1.4-2.5 2.4-3.6zm-1.7.1c-.8 1.1-1.5 2.2-2 3.5L5 7.9C6 6.2 7.7 5 9.7 4.5zM4.5 9.1h2.8c-.2.7-.3 1.5-.4 2.2H4c.1-.7.2-1.5.5-2.2zM4 12.5h2.9c0 .8.2 1.7.4 2.5H4.5c-.3-.8-.4-1.6-.5-2.5zm1.1 3.7h2.5c.5 1.2 1.1 2.2 1.8 3.2-1.8-.5-3.4-1.6-4.3-3.2zm6.2 3.5H11c-.9-1.1-1.7-2.3-2.2-3.5h2.6v3.5zm0-4.7h-3c-.2-.8-.3-1.6-.3-2.5h3.4c0 .9 0 1.7-.1 2.5zm.2-3.6H8.1c.1-.8.2-1.5.4-2.2h2.9c.1.7.1 1.4.1 2.2zm7.7-2.2c.3.7.5 1.5.5 2.3H17c-.1-.8-.2-1.5-.4-2.2l2.6-.1zm.6 3.4c-.1.8-.3 1.7-.7 2.4h-2.3c.2-.8.3-1.6.3-2.4h2.7zm-1.1-4.5h-2.3c-.5-1.2-1.1-2.3-1.8-3.3 1.7.5 3.2 1.7 4.1 3.3zm-6-3.7s0-.1 0 0c1.1 1 1.9 2.3 2.5 3.6h-2.5V4.4zm-.1 4.8h2.9c.2.7.4 1.5.4 2.2h-3.3V9.2zm0 3.4H16c0 .8-.2 1.6-.4 2.4h-3.1c.1-.8.1-1.6.1-2.4zm.7 7c-.2 0-.4.1-.6.1v-3.5h2.7c-.6 1.2-1.3 2.3-2.1 3.4zm1.8-.6c.6-.9 1.1-1.9 1.4-2.9h2c-.8 1.4-2 2.4-3.4 2.9z"/></svg>