<svg xmlns="http://www.w3.org/2000/svg" viewBox="0 0 24 24"><path d="M23.1 13.5h-.7c-.6-1-1.2-2.1-1.8-3.1-.1-.2-.3-.3-.5-.3h-3.6c0-1 0-2.1-.1-3.1 0-.3-.3-.6-.6-.6h-3c-.9-2.5-3.2-4.3-6-4.3C3.4 2.1.4 4.9.4 8.3c0 1.6.6 3 1.6 4.1v.1c0 2.3-.1 4.6-.1 6.9 0 .3.3.6.6.6h4c.2 1 .8 1.8 2 1.9 1.5.1 2.3-.7 2.6-1.9H17.2c.1 1.2.9 2 2.3 2.1 1.5.1 2.1-.8 2.3-2.1H23c.3 0 .6-.3.6-.6v-5.2c.1-.4-.2-.7-.5-.7zM20 17c-.8 0-1.5.3-2.1.7-.4.3-.6.7-.7 1.1h-.6v-4h5.8v4h-.6c-.1-1-.6-1.8-1.8-1.8zm-.3-5.6c.4.7.8 1.4 1.2 2.2h-4.4v-2.1c1.1-.1 2.1-.1 3.2-.1zm-4.5-3.7c.1 3.7.1 7.4.2 11.1h-4.2c-.1-1.1-.7-1.9-1.9-1.9-1.2-.1-2.5.7-2.7 1.9H3.3c0-1.8.1-3.6.1-5.3.9.6 2.1 1 3.3 1.1 3.7.2 6.5-2.6 6.7-6.2 0-.2 0-.4-.1-.7h1.9zm-3.3.6c-.4 6.4-10.3 6.4-10.3 0s10-6.4 10.3 0zM8.6 20.7c-.9-.1-1.1-.8-1-1.6.1-.7.8-1 1.5-1s.8.5.8 1c0 1-.2 1.7-1.3 1.6zm11 .1c-.9 0-1.2-.4-1.2-1.3 0-.8.7-1.2 1.5-1.3.7 0 .8.5.8 1-.1.8-.2 1.6-1.1 1.6z"/><path d="M6.3 9.4c.8.5 1.6.9 2.5 1.3.7.3 1.4-.7.6-1.1-.8-.3-1.5-.7-2.2-1.1.1-.9.1-1.8.1-2.7 0-.8-1.2-.8-1.2 0 0 1 0 1.9-.2 2.9V9c.1.1.2.3.4.4z"/></svg>