<svg xmlns="http://www.w3.org/2000/svg" viewBox="0 0 24 24"><path d="M15.6 13.6c-.2-.2-.6-.2-.9 0l-1.6 1.3c-.9-1.6-2-3.1-3.1-4.6-.1-.1-.3-.3-.4-.5h.1c.9-.4 1.8-1 2.6-1.6.3-.2.4-.6.2-.8-.6-1.4-1.2-3.6-2.5-4.3-1.9-1-4.2 1.4-5.4 2.7-.2.2-.4.5-.3.8.8 3.6 2.2 6.6 4.2 9.3 1.2 1.9 3.1 5.3 5.6 5.4 1.2.1 3.3-1.4 4.2-2.3 2-2-1.3-4.2-2.7-5.4zm-.6 1zm.4 4.7c-1.4.9-1.6.8-3.2-.7-3.2-3-5.4-7.8-6.6-12 1-1 2.8-2.8 4-2.1.7.4 1 2.1 1.5 2.7 0 .1.1.1.1.2l-.6.3c-.7.4-1.5.8-2.1 1.3-.3.2-.4.5-.3.8l4.1 6.3c.2.3.6.4.9.2l.1-.1c.5-.4 1.1-1.2 1.8-1.5l.3.3c.3.5 1 .8 1.4 1.3 1.2 2.1 0 2.2-1.4 3z"/><path d="M14.2 8.9c.8.3 1.4.8 1.7 1.6.3.8 1.5.4 1.2-.3-.4-1.2-1.3-2.2-2.5-2.6-.8-.2-1.1 1-.4 1.3zM15.1 6.5c1.5.1 2.7 1.2 3 2.7.1.8 1.3.5 1.2-.3-.4-2-2.1-3.5-4.2-3.6-.8 0-.8 1.2 0 1.2z"/></svg>