<svg xmlns="http://www.w3.org/2000/svg" viewBox="0 0 24 24"><path d="M6.3 8.7c4 0 7.5 0 11.5.1.3 0 .6-.3.6-.6s-.3-.6-.6-.6c-4-.1-7.5-.1-11.5-.1-.3 0-.6.3-.6.6-.1.4.2.6.6.6zM6.3 11.3c4 0 7.5 0 11.5.1.3 0 .6-.3.6-.6s-.3-.6-.6-.6c-4-.2-7.5-.2-11.5-.2-.3 0-.6.3-.6.6s.2.7.6.7zM6.3 13.7c4 0 7.5 0 11.5.1.3 0 .6-.3.6-.6s-.3-.6-.6-.6c-4-.1-7.5-.1-11.5-.1-.4 0-.6.3-.6.6-.1.4.2.6.6.6z"/><path d="M21.2 13.2c0-.7-.1-1.4-.1-2.1-.1-1.4-.1-2.9-.2-4.3-.2-1.2-.4-2.1-1.8-2.5-.3-.1-.7-.2-1.1-.2-.2 0-.5-.1-.7-.1h-.8c-2.5.4-4.9 0-7.3.1-1.6.1-3.4 0-4.9.7-.5.1-1 .5-1.2 1.5-.7 2.4-.3 4.8-.3 7.2-.1 1.1 0 2.2.4 3.2.3.4.8.7 1.3.7.4 1 .1 2.1.2 3.6 0 .3.3.5.6.5.1 0 .3-.1.4-.2.7-1.9 2.3-3.3 4.3-3.8h8.5c.5 0 .9-.1 1.3-.4.6-.3 1-.9 1.1-1.6.2-.7.3-1.5.3-2.3zm-1.5 2.1c-.3.7-.9.8-1.5 1h-4.3c-3.7-.2-6.1.2-7.9 2.6 0-.6 0-1 .1-1.6.1-.5-.2-.9-.6-1.1-.3 0-.5-.1-.7-.2-.4-.1-.6-.5-.7-.8-.4-1 0-2.3-.2-3.5-.2-1.6-.4-3.5.5-5 1.1-1.8 7.8-1.1 10-1.1 1.1 0 4.4-.5 5.1.5.1.1.1.2.1.4.2.7.3 1.5.2 2.2 0 .1.1.7 0 .8.1 1.3 0 2 .1 3.3.1.7.1 1.3 0 1.9.1 0-.1.5-.2.6z"/></svg>