<svg xmlns="http://www.w3.org/2000/svg" viewBox="0 0 24 24"><path d="M5.8 21.1c-.2-1.8-.1-3.6-.1-5.4.4.2.9 1 1.4 1.2.3.2.8.1 1-.2.1-.2.2-.9.3-1l.2-.2c.5.2 1.1.7 1.5 1 .3.2.6.1.9-.1 1.3-1 .7-.9 1.9.1.3.2.6.3.9.1.7-.3 1.3-.7 1.9-1 .6 1.5 1 1.6 3 .3-.1 2 .2 3.6.1 5.4-4.4-.3-8.7-.4-13-.2m14.3-6.5c0-.4-.5-.8-.9-.6-.8.3-1.5 1.1-2.2 1.5-.1 0-.1.1-.1.1-.1-.3-.1-1.1-.2-1.3-.1-.4-.7-.6-1-.4l-2.1 1.2c-.1 0-.1.1-.2.1 0-.1-.1-.2-.3-.5-.2-.2-.5-.4-.8-.5-.2-.1-.5-.1-.7 0-.2.2-1.1.7-1.3.9-.2-.2-1.2-.8-1.5-1-.3-.2-.6-.1-.9.1-.3.3-.6 1-.8 1.3-.6-.3-1.2-1.1-1.8-1.4-.5-.2-1.1 0-1.1.6 0 2.4-.2 4.8.1 7.2 0 .3.3.7.7.7 4.7-.3 9.5-.1 14.2-.1.4 0 .7-.3.7-.7v-.6c.4-2.6 0-4 .2-6.6M18.695 2.78v4.6c-.3.2-.5.4-.8.6-.3-.6-.6-1.1-1-1.7-.2-.3-.7-.4-1-.2-.8.5-1.6 1.1-2.5 1.7-.1-.2-.3-.5-.5-.7-.2-.3-.6-.4-1-.2-.3.2-1.5.6-1.8.9-.3-.4-1.2-1.2-1.5-1.4-.2-.2-.6-.3-.8-.1-.7.5-1.5 1-2.2 1.5-.1-1.7-.1-3.3-.1-5 4.4 0 8.8.1 13.2 0m-13.4 6.8c.8-.6 2-1.1 2.7-1.9l.1.1c.3.5 1 .9 1.4 1.3.2.2.5.2.8.1l1.8-.9c.2.2.4.5.6.7.2.3.6.5.9.3.8-.6 1.6-1.1 2.4-1.7l1 1.7c.2.3.7.4 1 .2.6-.4 1.1-.7 1.7-1.1l.1-.1c.1-.1.3-.3.3-.6v-5.6c0-.3-.3-.7-.7-.7-4.8.2-9.6.1-14.4 0-.3 0-.4.1-.6.3-.2.1-.4.3-.4.6.1 2.3 0 4.4.3 6.7 0 .5.6.9 1 .6M4.4 11.308c-.5-.7-1.7-.4-2.3-.3-.5 0-.7.4-.7.8s.2.7.7.7h1.5c.3 0 .7 0 .8-.4.1-.3.1-.6 0-.8M6.5 12.4H8c.3 0 .6 0 .8-.4.1-.2.1-.5 0-.7-.4-.7-1.6-.4-2.3-.4-.5 0-.7.4-.7.8.1.3.3.7.7.7M11.1 12.4c.6 0 1.3.1 1.8-.1s.7-.8.3-1.2c-.4-.5-1.6-.2-2.1-.2s-.7.4-.7.8.2.7.7.7M15.5 12.4c.5 0 1.3.2 1.8 0s.7-.8.3-1.2c-.4-.5-1.6-.2-2.1-.2s-.7.4-.7.8c0 .2.2.6.7.6M22.148 11.308c-.4-.7-1.7-.4-2.3-.4-.5 0-.7.4-.7.8s.2.7.7.7h1.5c.3 0 .6 0 .8-.4.1-.2.2-.5 0-.7"/></svg>