<svg xmlns="http://www.w3.org/2000/svg" xmlns:xlink="http://www.w3.org/1999/xlink" id="Layer_1" x="0" y="0" version="1.1" viewBox="0 0 24 24" xml:space="preserve" style="enable-background:new 0 0 24 24"><path d="M19.5,6c-3.9-5-11-4.5-15-0.2C4.3,5.8,4.1,6,4,6.1L3.2,7.4C3.1,7.5,3.1,7.7,3.1,7.8v0.1c-0.7,2.2-0.8,4.5-0.3,6.7	c0.6,2,2.2,3.6,3.6,5c0.1,0.1,0.2,0.2,0.4,0.2l0.1,0.1c2.4,1.1,5,1.4,7.5,0.8c0.9-0.1,1.7-0.4,2.4-0.9c0.1-0.1,0.4-0.1,0.5-0.2	l0.2-0.2c0.5-0.5,0.8-0.9,1.4-1.2l0.2-0.2c0.8-0.7,1.4-1.7,1.7-2.7C22,12.2,21.5,8.7,19.5,6z M19.4,15.8c-0.3,0.5-0.5,0.7-1,1.1	L18,17.2c-0.7,0.8-1.5,1.2-2.4,1.9c-2.7,1.1-5.7,0.7-8.3-0.5H7.1C5.7,17.3,4.7,16,4,14.3c-0.5-2-0.4-4,0.2-6V8	C8.1,1.8,18,2.2,19.9,9.8C20.6,11.9,20.4,13.8,19.4,15.8z"/><path d="M16.8,8.5l-1.1-1h-0.4c-0.1,0-0.5,0.6-0.6,0.7L14,9c-0.5,0.5-0.5,0.5-0.9,1c-0.9,0.9-1.9,1.8-2.8,2.7v0.1l-1.4-1.4H8.5	l-1.2,1.2V13l0.3,0.3l0.3,0.3l0.9,1v0.1l1.3,1.2h0.3l0.5-0.5c0.8-0.7,1.5-1.4,2.2-2.1c0.6-0.6,0.8-0.7,1.3-1.3l1.8-1.8	c0.1-0.2,0.8-0.8,0.8-1V8.8C17,8.8,16.8,8.5,16.8,8.5z"/></svg>