<svg xmlns="http://www.w3.org/2000/svg" viewBox="0 0 24 24"><path d="M20.5 11.2c0-.3-.3-.6-.6-.6h-9.5c-.2-1.2-.2-2.6 0-3.8.2-1.1.9-1 1.8-1s1.4-.1 1.8.9c.2.7 0 1.6.6 2.1.7.8 3.6.9 3.6-.6.1-2.4-.2-4.7-2.3-6.1-1.4-1-3.5-.7-5.1-.6-1.7 0-3.1.4-4.1 2-1.2 1.8-.6 4.9-.6 7.2H4.3c-.3 0-.6.3-.6.6.2 3.6.1 7.2 0 10.8 0 .3.3.6.6.6 5.3-.2 10.7-.3 15.9 0 .3 0 .6-.3.6-.6-.4-3.6-.3-7.2-.3-10.9zm-9.9-8.5c1 0 2.2-.2 3.2 0 2.7.5 3.1 3.1 3 5.4 0-.3-1.2 0-1.5-.4-.4-.5-.2-1.6-.4-2.2-.5-1.3-1.8-1-3-1.1-1 0-2-.1-2.5.9-.3.7-.3 1.4-.3 2.1-.1 1.1-.1 2.1 0 3.2h-2c.2-3.2-.9-7.7 3.5-7.9zm4.7 18.7H4.8c0-2 .1-4 .1-6 0-.9.1-1.9 0-2.8v-.8h13.8c.2 0 .7-.1.7.5-.1 1.7 0 3.5 0 5.2 0 .8 0 1.5.1 2.3v1.5h-.2c-1.4.1-2.8.1-4 .1z"/><path d="M12.2 13.8c-1.3 0-1.8.7-1.8 1.4 0 .6.3 1 .9 1.2v3c0 .8 1.2.8 1.2 0v-3c.5-.1.9-.4.9-1.3.1-1-.6-1.3-1.2-1.3z"/></svg>